<svg width="161" height="162" viewBox="0 0 161 162" fill="none" xmlns="http://www.w3.org/2000/svg">
<path d="M13.5 -132C20.9573 -132 28.2838 -131.443 35.4404 -130.368L36.8691 -130.146C37.4132 -130.059 37.9244 -130.429 38.0137 -130.972C60.4781 -127.214 81.222 -118.378 99.0264 -105.686C98.706 -105.238 98.8067 -104.616 99.2529 -104.293C111.948 -95.1129 123.113 -83.9477 132.293 -71.2529C132.616 -70.8068 133.237 -70.7071 133.685 -71.0273C146.378 -53.223 155.213 -32.4792 158.971 -10.0146C158.428 -9.92504 158.059 -9.41289 158.146 -8.86914C159.366 -1.2599 160 6.54568 160 14.5C160 22.4543 159.366 30.2599 158.146 37.8691C158.059 38.4128 158.428 38.924 158.971 39.0137C155.213 61.4783 146.377 82.2219 133.685 100.026C133.265 99.7265 132.693 99.7964 132.357 100.174L132.293 100.253C123.4 112.551 112.644 123.414 100.438 132.427L99.2529 133.293C98.8069 133.616 98.7066 134.237 99.0264 134.685C81.2219 147.377 60.4783 156.213 38.0137 159.971C37.924 159.428 37.4128 159.059 36.8691 159.146C29.2599 160.366 21.4543 161 13.5 161C5.54568 161 -2.2599 160.366 -9.86914 159.146L-9.9707 159.136C-10.4753 159.106 -10.9306 159.462 -11.0146 159.971C-33.4792 156.213 -54.223 147.378 -72.0273 134.685C-71.7071 134.237 -71.8068 133.616 -72.2529 133.293L-73.4385 132.427C-85.6436 123.414 -96.3997 112.551 -105.293 100.253L-105.357 100.173C-105.693 99.7957 -106.266 99.7262 -106.686 100.026C-119.378 82.222 -128.214 61.4781 -131.972 39.0137C-131.429 38.9244 -131.059 38.4132 -131.146 37.8691L-131.368 36.4404C-132.443 29.2838 -133 21.9573 -133 14.5C-133 7.04271 -132.443 -0.283829 -131.368 -7.44043L-131.146 -8.86914C-131.059 -9.4132 -131.428 -9.92548 -131.972 -10.0146C-128.214 -32.479 -119.378 -53.2231 -106.686 -71.0273C-106.266 -70.7266 -105.694 -70.7961 -105.357 -71.1738L-105.293 -71.2529C-96.3997 -83.5511 -85.6436 -94.4138 -73.4385 -103.427L-72.2529 -104.293C-71.8065 -104.616 -71.7066 -105.238 -72.0273 -105.686C-54.2231 -118.378 -33.479 -127.214 -11.0146 -130.972C-10.931 -130.462 -10.4756 -130.106 -9.9707 -130.136L-9.86914 -130.146C-2.2599 -131.366 5.54568 -132 13.5 -132Z" stroke="#C5FFDC" stroke-opacity="0.75" stroke-width="2" stroke-linecap="round" stroke-dasharray="42 61"/>
<path d="M135.347 14.4999C135.347 81.7946 80.7939 136.348 13.4992 136.348C-53.7955 136.348 -108.349 81.7946 -108.349 14.4999C-108.349 -52.7948 -53.7955 -107.348 13.4992 -107.348C80.7939 -107.348 135.347 -52.7948 135.347 14.4999Z" fill="#C5FFDC" fill-opacity="0.5"/>
<path d="M101.62 14.5001C101.62 63.1674 62.1672 102.62 13.4998 102.62C-35.1675 102.62 -74.6201 63.1674 -74.6201 14.5001C-74.6201 -34.1672 -35.1675 -73.6199 13.4998 -73.6199C62.1672 -73.6199 101.62 -34.1672 101.62 14.5001Z" fill="#EDFAF2"/>
<circle cx="17.775" cy="14.5001" r="41.066" fill="#C5FFDC" stroke="#9FF5C3"/>
</svg>
