<svg width="336" height="349" viewBox="0 0 336 349" fill="none" xmlns="http://www.w3.org/2000/svg">
<path d="M330.33 1.625L330.393 0.626953H330.392L330.33 1.625ZM330.33 1.625C330.88 1.65962 331.354 1.24229 331.39 0.692383C350.237 1.94444 368.625 4.87774 386.404 9.34473C386.269 9.87931 386.593 10.4224 387.128 10.5586C400.036 13.8463 412.619 17.946 424.821 22.7988C425.334 23.0027 425.915 22.7524 426.119 22.2402C443.486 29.2125 460.077 37.7096 475.727 47.5645C475.433 48.0306 475.572 48.648 476.038 48.9434C487.224 56.0376 497.924 63.8291 508.076 72.2578C508.501 72.6102 509.129 72.5525 509.482 72.1289C523.756 84.0569 536.942 97.2429 548.87 111.517C548.447 111.87 548.39 112.499 548.742 112.924C557.171 123.076 564.962 133.776 572.057 144.962C572.352 145.427 572.968 145.566 573.435 145.272C583.289 160.922 591.786 177.513 598.759 194.88C598.247 195.085 597.997 195.666 598.201 196.179C603.054 208.381 607.154 220.964 610.441 233.872L610.471 233.97C610.644 234.445 611.153 234.721 611.654 234.595C616.121 252.374 619.055 270.762 620.307 289.609C619.757 289.646 619.34 290.12 619.375 290.67M330.33 1.625C323.774 1.21045 317.161 1 310.5 1C303.839 1 297.226 1.21045 290.67 1.625M619.375 290.67L620.372 290.606V290.607H620.373L619.375 290.67ZM619.375 290.67C619.79 297.226 620 303.839 620 310.5C620 317.161 619.79 323.774 619.375 330.33M619.375 330.33L620.372 330.392V330.393L619.375 330.33ZM619.375 330.33C619.34 330.88 619.757 331.353 620.307 331.39C619.055 350.238 616.121 368.625 611.654 386.404C611.153 386.278 610.644 386.555 610.471 387.03L610.441 387.128C607.359 399.229 603.564 411.045 599.103 422.529L598.201 424.821C597.997 425.334 598.247 425.914 598.759 426.119C591.786 443.486 583.289 460.077 573.435 475.727C572.998 475.452 572.429 475.557 572.116 475.954L572.057 476.038C565.406 486.525 558.142 496.584 550.314 506.166L548.742 508.076C548.39 508.5 548.447 509.129 548.87 509.482C536.942 523.756 523.756 536.942 509.482 548.87C509.151 548.473 508.577 548.398 508.157 548.681L508.076 548.742C498.558 556.644 488.559 563.986 478.13 570.719L476.038 572.057C475.573 572.352 475.433 572.969 475.727 573.435C460.077 583.289 443.486 591.786 426.119 598.759C425.927 598.279 425.406 598.03 424.919 598.168L424.821 598.201C413.382 602.751 401.607 606.638 389.544 609.815L387.128 610.441C386.594 610.578 386.27 611.12 386.404 611.654C368.625 616.121 350.238 619.055 331.39 620.307C331.355 619.791 330.937 619.393 330.432 619.374L330.33 619.375C323.774 619.79 317.161 620 310.5 620C303.839 620 297.226 619.79 290.67 619.375M290.67 619.375L290.607 620.372H290.606L290.67 619.375ZM290.67 619.375C290.12 619.34 289.646 619.757 289.609 620.307C270.762 619.055 252.374 616.121 234.595 611.654C234.729 611.12 234.406 610.578 233.872 610.441L231.456 609.815C219.393 606.638 207.618 602.751 196.179 598.201L196.081 598.168C195.594 598.03 195.072 598.279 194.88 598.759C177.513 591.786 160.922 583.289 145.272 573.435C145.566 572.968 145.427 572.352 144.962 572.057L142.87 570.719C132.441 563.986 122.442 556.644 112.924 548.742L112.843 548.681C112.423 548.398 111.848 548.473 111.517 548.87C97.2429 536.942 84.0569 523.756 72.1289 509.482C72.5525 509.129 72.6102 508.501 72.2578 508.076L70.6855 506.166C62.8584 496.584 55.5943 486.525 48.9434 476.038L48.8838 475.954C48.571 475.556 48.0014 475.451 47.5645 475.727C37.7096 460.077 29.2125 443.486 22.2402 426.119C22.7524 425.915 23.0027 425.334 22.7988 424.821L21.8975 422.529C17.4365 411.045 13.6408 399.229 10.5586 387.128L10.5293 387.03C10.3555 386.555 9.846 386.278 9.34473 386.404C4.87774 368.625 1.94444 350.237 0.692383 331.39C1.24227 331.354 1.65959 330.88 1.625 330.33M1.625 330.33L0.626953 330.393V330.392L1.625 330.33ZM1.625 330.33C1.21045 323.774 1 317.161 1 310.5C1 303.839 1.21045 297.226 1.625 290.67C1.65962 290.12 1.24232 289.645 0.692383 289.609C1.9445 270.762 4.87769 252.374 9.34473 234.595C9.84607 234.722 10.3555 234.445 10.5293 233.97L10.5586 233.872C13.6408 221.771 17.4365 209.955 21.8975 198.471L22.7988 196.179C23.0028 195.666 22.7526 195.084 22.2402 194.88C29.2126 177.513 37.7096 160.922 47.5645 145.272C48.0014 145.548 48.5709 145.444 48.8838 145.046L48.9434 144.962C55.5943 134.475 62.8584 124.416 70.6855 114.834L72.2578 112.924C72.6103 112.499 72.5529 111.87 72.1289 111.517C84.0569 97.2429 97.2429 84.0569 111.517 72.1289C111.847 72.5263 112.421 72.6017 112.842 72.3193L112.924 72.2578C122.442 64.3559 132.441 57.0137 142.87 50.2812L144.962 48.9434C145.428 48.6479 145.567 48.0306 145.272 47.5645C160.922 37.7096 177.513 29.2126 194.88 22.2402C195.072 22.7204 195.594 22.9704 196.081 22.832L196.179 22.7988C208.381 17.946 220.964 13.8463 233.872 10.5586C234.407 10.4224 234.73 9.87939 234.595 9.34473C252.374 4.87769 270.762 1.9445 289.609 0.692383C289.645 1.2423 290.12 1.65959 290.67 1.625M290.67 1.625L290.606 0.626953H290.607L290.67 1.625Z" stroke="#C5FFDC" stroke-opacity="0.75" stroke-width="2" stroke-linecap="round" stroke-dasharray="42 61"/>
<path d="M566.999 310.5C566.999 452.161 452.16 567 310.499 567C168.838 567 53.999 452.161 53.999 310.5C53.999 168.839 168.838 54 310.499 54C452.16 54 566.999 168.839 566.999 310.5Z" fill="#C5FFDC" fill-opacity="0.5"/>
<path d="M495.999 310.5C495.999 412.949 412.948 496 310.499 496C208.05 496 124.999 412.949 124.999 310.5C124.999 208.051 208.05 125 310.499 125C412.948 125 495.999 208.051 495.999 310.5Z" fill="#EDFAF2"/>
<circle cx="319.499" cy="310.5" r="87" fill="#C5FFDC" stroke="#9FF5C3"/>
</svg>
