<svg width="282" height="330" viewBox="0 0 282 330" fill="none" xmlns="http://www.w3.org/2000/svg">
<path d="M-8.66992 -289.375L-8.60742 -290.373H-8.6084L-8.66992 -289.375ZM-8.66992 -289.375C-8.11967 -289.34 -7.64641 -289.758 -7.61035 -290.308C11.2375 -289.056 29.6252 -286.122 47.4043 -281.655C47.2692 -281.121 47.5934 -280.578 48.1279 -280.441C61.0357 -277.154 73.6193 -273.054 85.8213 -268.201C86.334 -267.997 86.9145 -268.248 87.1191 -268.76C104.486 -261.787 121.077 -253.29 136.727 -243.436C136.433 -242.969 136.572 -242.352 137.038 -242.057C148.224 -234.962 158.924 -227.171 169.076 -218.742C169.501 -218.39 170.129 -218.448 170.482 -218.871C184.756 -206.943 197.942 -193.757 209.87 -179.483C209.447 -179.13 209.39 -178.501 209.742 -178.076C218.171 -167.924 225.962 -157.224 233.057 -146.038C233.352 -145.573 233.968 -145.434 234.435 -145.728C244.289 -130.078 252.786 -113.487 259.759 -96.1201C259.247 -95.9153 258.997 -95.3338 259.201 -94.8213C264.054 -82.6193 268.154 -70.0357 271.441 -57.1279L271.471 -57.0303C271.644 -56.5549 272.153 -56.279 272.654 -56.4053C277.121 -38.6262 280.055 -20.2385 281.307 -1.39062C280.757 -1.35411 280.34 -0.88001 280.375 -0.330078M-8.66992 -289.375C-15.2264 -289.79 -21.8387 -290 -28.5 -290C-35.1613 -290 -41.7736 -289.79 -48.3301 -289.375M280.375 -0.330078L281.372 -0.393555V-0.392578H281.373L280.375 -0.330078ZM280.375 -0.330078C280.79 6.22636 281 12.8387 281 19.5C281 26.1613 280.79 32.7736 280.375 39.3301M280.375 39.3301L281.372 39.3916V39.3926L280.375 39.3301ZM280.375 39.3301C280.34 39.88 280.757 40.3531 281.307 40.3896C280.055 59.2375 277.121 77.6252 272.654 95.4043C272.153 95.2781 271.644 95.5549 271.471 96.0303L271.441 96.1279C268.359 108.229 264.564 120.045 260.103 131.529L259.201 133.821C258.997 134.334 259.247 134.914 259.759 135.119C252.786 152.486 244.289 169.077 234.435 184.727C233.998 184.452 233.429 184.557 233.116 184.954L233.057 185.038C226.406 195.525 219.142 205.584 211.314 215.166L209.742 217.076C209.39 217.5 209.447 218.129 209.87 218.482C197.942 232.756 184.756 245.942 170.482 257.87C170.151 257.473 169.577 257.398 169.157 257.681L169.076 257.742C159.558 265.644 149.559 272.986 139.13 279.719L137.038 281.057C136.573 281.352 136.433 281.969 136.727 282.435C121.077 292.289 104.486 300.786 87.1191 307.759C86.9271 307.279 86.4055 307.03 85.9189 307.168L85.8213 307.201C74.3817 311.751 62.607 315.638 50.5439 318.815L48.1279 319.441C47.5937 319.578 47.2698 320.12 47.4043 320.654C29.6252 325.121 11.2375 328.055 -7.61035 329.307C-7.64463 328.791 -8.06278 328.393 -8.56836 328.374L-8.66992 328.375C-15.2264 328.79 -21.8387 329 -28.5 329C-35.1613 329 -41.7736 328.79 -48.3301 328.375M-48.3301 328.375L-48.3926 329.372H-48.3936L-48.3301 328.375ZM-48.3301 328.375C-48.88 328.34 -49.3541 328.757 -49.3906 329.307C-68.2385 328.055 -86.6262 325.121 -104.405 320.654C-104.271 320.12 -104.594 319.578 -105.128 319.441L-107.544 318.815C-119.607 315.638 -131.382 311.751 -142.821 307.201L-142.919 307.168C-143.406 307.03 -143.928 307.279 -144.12 307.759C-161.487 300.786 -178.078 292.289 -193.728 282.435C-193.434 281.968 -193.573 281.352 -194.038 281.057L-196.13 279.719C-206.559 272.986 -216.558 265.644 -226.076 257.742L-226.157 257.681C-226.577 257.398 -227.152 257.473 -227.483 257.87C-241.757 245.942 -254.943 232.756 -266.871 218.482C-266.448 218.129 -266.39 217.501 -266.742 217.076L-268.314 215.166C-276.142 205.584 -283.406 195.525 -290.057 185.038L-290.116 184.954C-290.429 184.556 -290.999 184.451 -291.436 184.727C-301.29 169.077 -309.787 152.486 -316.76 135.119C-316.248 134.915 -315.997 134.334 -316.201 133.821L-317.103 131.529C-321.564 120.045 -325.359 108.229 -328.441 96.1279L-328.471 96.0303C-328.644 95.5546 -329.154 95.2776 -329.655 95.4043C-334.122 77.6252 -337.056 59.2375 -338.308 40.3896C-337.758 40.3536 -337.34 39.8803 -337.375 39.3301M-337.375 39.3301L-338.373 39.3926V39.3916L-337.375 39.3301ZM-337.375 39.3301C-337.79 32.7736 -338 26.1613 -338 19.5C-338 12.8387 -337.79 6.22638 -337.375 -0.330078C-337.34 -0.880356 -337.758 -1.3546 -338.308 -1.39062C-337.056 -20.2384 -334.122 -38.6262 -329.655 -56.4053C-329.154 -56.2784 -328.645 -56.5546 -328.471 -57.0303L-328.441 -57.1279C-325.359 -69.2291 -321.564 -81.0453 -317.103 -92.5293L-316.201 -94.8213C-315.997 -95.3341 -316.247 -95.9156 -316.76 -96.1201C-309.787 -113.487 -301.29 -130.078 -291.436 -145.728C-290.999 -145.452 -290.429 -145.556 -290.116 -145.954L-290.057 -146.038C-283.406 -156.525 -276.142 -166.584 -268.314 -176.166L-266.742 -178.076C-266.39 -178.501 -266.447 -179.13 -266.871 -179.483C-254.943 -193.757 -241.757 -206.943 -227.483 -218.871C-227.153 -218.474 -226.579 -218.398 -226.158 -218.681L-226.076 -218.742C-216.558 -226.644 -206.559 -233.986 -196.13 -240.719L-194.038 -242.057C-193.572 -242.352 -193.433 -242.969 -193.728 -243.436C-178.078 -253.29 -161.487 -261.787 -144.12 -268.76C-143.928 -268.28 -143.406 -268.03 -142.919 -268.168L-142.821 -268.201C-130.619 -273.054 -118.036 -277.154 -105.128 -280.441C-104.593 -280.578 -104.27 -281.121 -104.405 -281.655C-86.6262 -286.122 -68.2384 -289.055 -49.3906 -290.308C-49.3546 -289.758 -48.8803 -289.34 -48.3301 -289.375M-48.3301 -289.375L-48.3936 -290.373H-48.3926L-48.3301 -289.375Z" stroke="#C5FFDC" stroke-opacity="0.75" stroke-width="2" stroke-linecap="round" stroke-dasharray="42 61"/>
<path d="M227.999 19.5C227.999 161.161 113.16 276 -28.501 276C-170.162 276 -285.001 161.161 -285.001 19.5C-285.001 -122.161 -170.162 -237 -28.501 -237C113.16 -237 227.999 -122.161 227.999 19.5Z" fill="#C5FFDC" fill-opacity="0.5"/>
<path d="M156.999 19.5C156.999 121.949 73.9478 205 -28.501 205C-130.95 205 -214.001 121.949 -214.001 19.5C-214.001 -82.9488 -130.95 -166 -28.501 -166C73.9478 -166 156.999 -82.9488 156.999 19.5Z" fill="#EDFAF2"/>
<circle cx="-19.501" cy="19.5" r="87" fill="#C5FFDC" stroke="#9FF5C3"/>
</svg>
