<?xml version="1.0"?>
<svg xmlns="http://www.w3.org/2000/svg" xmlns:xlink="http://www.w3.org/1999/xlink" width="500" zoomAndPan="magnify" viewBox="0 0 375 374.999991" height="500" preserveAspectRatio="xMidYMid meet" version="1.0" style="background-color:transparent;">
  <defs>
    <filter x="0%" y="0%" width="100%" height="100%" id="ab74586094">
      <feColorMatrix values="0 0 0 0 1 0 0 0 0 1 0 0 0 0 1 0 0 0 1 0" color-interpolation-filters="sRGB"/>
    </filter>
    <clipPath id="dff87cb0e7">
      <path d="M 76.488281 288 L 299.988281 288 L 299.988281 302.511719 L 76.488281 302.511719 Z M 76.488281 288 " clip-rule="nonzero"/>
    </clipPath>
    <mask id="5b586b0de6">
      <g filter="url(#ab74586094)">
        <rect x="-37.5" width="450" fill="#000000" y="-37.499999" height="449.999989" fill-opacity="0.5"/>
      </g>
    </mask>
    <clipPath id="db5be0deea">
      <path d="M 0.199219 0.28125 L 30.921875 0.28125 L 30.921875 31 L 0.199219 31 Z M 0.199219 0.28125 " clip-rule="nonzero"/>
    </clipPath>
    <clipPath id="d3e6f96d6e">
      <rect x="0" width="31" y="0" height="31"/>
    </clipPath>
    <clipPath id="200955d069">
      <path d="M 113 74.511719 L 141 74.511719 L 141 102 L 113 102 Z M 113 74.511719 " clip-rule="nonzero"/>
    </clipPath>
  </defs>
  <rect x="-37.5" width="450" fill="none" y="-37.499999" height="449.999989" fill-opacity="1"/>
  <rect x="-37.5" width="450" fill="none" y="-37.499999" height="449.999989" fill-opacity="1"/>
  <path fill="#efefef" d="M 80.320312 179.175781 L 80.980469 179.175781 L 80.980469 267.164062 L 80.320312 267.164062 Z M 80.320312 179.175781 " fill-opacity="1" fill-rule="nonzero"/>
  <path fill="#efefef" d="M 94.863281 179.175781 L 95.519531 179.175781 L 95.519531 267.164062 L 94.863281 267.164062 Z M 94.863281 179.175781 " fill-opacity="1" fill-rule="nonzero"/>
  <path fill="#efefef" d="M 109.394531 179.175781 L 110.054688 179.175781 L 110.054688 267.164062 L 109.394531 267.164062 Z M 109.394531 179.175781 " fill-opacity="1" fill-rule="nonzero"/>
  <path fill="#efefef" d="M 123.929688 179.175781 L 124.589844 179.175781 L 124.589844 267.164062 L 123.929688 267.164062 Z M 123.929688 179.175781 " fill-opacity="1" fill-rule="nonzero"/>
  <path fill="#efefef" d="M 138.464844 179.175781 L 139.121094 179.175781 L 139.121094 267.164062 L 138.464844 267.164062 Z M 138.464844 179.175781 " fill-opacity="1" fill-rule="nonzero"/>
  <path fill="#efefef" d="M 153.003906 179.175781 L 153.664062 179.175781 L 153.664062 267.164062 L 153.003906 267.164062 Z M 153.003906 179.175781 " fill-opacity="1" fill-rule="nonzero"/>
  <path fill="#efefef" d="M 167.539062 179.175781 L 168.199219 179.175781 L 168.199219 267.164062 L 167.539062 267.164062 Z M 167.539062 179.175781 " fill-opacity="1" fill-rule="nonzero"/>
  <path fill="#efefef" d="M 182.074219 179.175781 L 182.730469 179.175781 L 182.730469 267.164062 L 182.074219 267.164062 Z M 182.074219 179.175781 " fill-opacity="1" fill-rule="nonzero"/>
  <path fill="#efefef" d="M 196.609375 179.175781 L 197.265625 179.175781 L 197.265625 267.164062 L 196.609375 267.164062 Z M 196.609375 179.175781 " fill-opacity="1" fill-rule="nonzero"/>
  <path fill="#efefef" d="M 211.144531 179.175781 L 211.800781 179.175781 L 211.800781 267.164062 L 211.144531 267.164062 Z M 211.144531 179.175781 " fill-opacity="1" fill-rule="nonzero"/>
  <path fill="#efefef" d="M 80.875 186.429688 L 211.246094 186.429688 L 211.246094 187.230469 L 80.875 187.230469 Z M 80.875 186.429688 " fill-opacity="1" fill-rule="nonzero"/>
  <path fill="#efefef" d="M 80.875 200.964844 L 211.246094 200.964844 L 211.246094 201.765625 L 80.875 201.765625 Z M 80.875 200.964844 " fill-opacity="1" fill-rule="nonzero"/>
  <path fill="#efefef" d="M 80.875 215.503906 L 211.246094 215.503906 L 211.246094 216.308594 L 80.875 216.308594 Z M 80.875 215.503906 " fill-opacity="1" fill-rule="nonzero"/>
  <path fill="#efefef" d="M 80.875 230.039062 L 211.246094 230.039062 L 211.246094 230.839844 L 80.875 230.839844 Z M 80.875 230.039062 " fill-opacity="1" fill-rule="nonzero"/>
  <path fill="#efefef" d="M 80.875 244.574219 L 211.246094 244.574219 L 211.246094 245.375 L 80.875 245.375 Z M 80.875 244.574219 " fill-opacity="1" fill-rule="nonzero"/>
  <path fill="#efefef" d="M 80.875 259.109375 L 211.246094 259.109375 L 211.246094 259.910156 L 80.875 259.910156 Z M 80.875 259.109375 " fill-opacity="1" fill-rule="nonzero"/>
  <path fill="#efefef" d="M 278.09375 250.628906 L 140.511719 250.628906 C 138.710938 250.628906 137.257812 249.167969 137.257812 247.375 L 137.257812 122.8125 C 137.257812 121.011719 138.71875 119.558594 140.511719 119.558594 L 278.09375 119.558594 C 279.890625 119.558594 281.34375 121.019531 281.34375 122.8125 L 281.34375 247.375 C 281.34375 249.167969 279.882812 250.628906 278.09375 250.628906 Z M 278.09375 250.628906 " fill-opacity="1" fill-rule="nonzero"/>
  <path fill="#1f4b00" d="M 278.09375 251.125 L 140.511719 251.125 C 138.445312 251.125 136.761719 249.441406 136.761719 247.375 L 136.761719 122.8125 C 136.761719 120.746094 138.445312 119.0625 140.511719 119.0625 L 278.09375 119.0625 C 280.160156 119.0625 281.839844 120.746094 281.839844 122.8125 L 281.839844 247.375 C 281.839844 249.441406 280.160156 251.125 278.09375 251.125 Z M 140.511719 120.046875 C 138.984375 120.046875 137.746094 121.285156 137.746094 122.8125 L 137.746094 247.375 C 137.746094 248.902344 138.984375 250.140625 140.511719 250.140625 L 278.09375 250.140625 C 279.617188 250.140625 280.855469 248.902344 280.855469 247.375 L 280.855469 122.8125 C 280.855469 121.285156 279.617188 120.046875 278.09375 120.046875 Z M 140.511719 120.046875 " fill-opacity="1" fill-rule="nonzero"/>
  <path fill="#1f4b00" d="M 141.777344 133.707031 L 276.820312 133.707031 L 276.820312 246.105469 L 141.777344 246.105469 Z M 141.777344 133.707031 " fill-opacity="1" fill-rule="nonzero"/>
  <path fill="#efefef" d="M 145.289062 126.410156 C 145.289062 126.609375 145.25 126.796875 145.175781 126.980469 C 145.097656 127.164062 144.988281 127.328125 144.847656 127.46875 C 144.707031 127.609375 144.546875 127.71875 144.363281 127.792969 C 144.179688 127.871094 143.988281 127.90625 143.789062 127.90625 C 143.589844 127.90625 143.398438 127.871094 143.214844 127.792969 C 143.03125 127.71875 142.871094 127.609375 142.730469 127.46875 C 142.589844 127.328125 142.480469 127.164062 142.40625 126.980469 C 142.328125 126.796875 142.289062 126.609375 142.289062 126.410156 C 142.289062 126.210938 142.328125 126.019531 142.40625 125.835938 C 142.480469 125.652344 142.589844 125.488281 142.730469 125.347656 C 142.871094 125.207031 143.03125 125.101562 143.214844 125.023438 C 143.398438 124.949219 143.589844 124.910156 143.789062 124.910156 C 143.988281 124.910156 144.179688 124.949219 144.363281 125.023438 C 144.546875 125.101562 144.707031 125.207031 144.847656 125.347656 C 144.988281 125.488281 145.097656 125.652344 145.175781 125.835938 C 145.25 126.019531 145.289062 126.210938 145.289062 126.410156 Z M 145.289062 126.410156 " fill-opacity="1" fill-rule="nonzero"/>
  <path fill="#efefef" d="M 155.664062 126.410156 C 155.664062 126.609375 155.625 126.796875 155.550781 126.980469 C 155.472656 127.164062 155.367188 127.328125 155.226562 127.46875 C 155.085938 127.609375 154.921875 127.71875 154.738281 127.792969 C 154.554688 127.871094 154.363281 127.90625 154.164062 127.90625 C 153.964844 127.90625 153.777344 127.871094 153.59375 127.792969 C 153.40625 127.71875 153.246094 127.609375 153.105469 127.46875 C 152.964844 127.328125 152.855469 127.164062 152.78125 126.980469 C 152.703125 126.796875 152.667969 126.609375 152.667969 126.410156 C 152.667969 126.210938 152.703125 126.019531 152.78125 125.835938 C 152.855469 125.652344 152.964844 125.488281 153.105469 125.347656 C 153.246094 125.207031 153.40625 125.101562 153.59375 125.023438 C 153.777344 124.949219 153.964844 124.910156 154.164062 124.910156 C 154.363281 124.910156 154.554688 124.949219 154.738281 125.023438 C 154.921875 125.101562 155.085938 125.207031 155.226562 125.347656 C 155.367188 125.488281 155.472656 125.652344 155.550781 125.835938 C 155.625 126.019531 155.664062 126.210938 155.664062 126.410156 Z M 155.664062 126.410156 " fill-opacity="1" fill-rule="nonzero"/>
  <path fill="#efefef" d="M 150.476562 126.410156 C 150.476562 126.609375 150.4375 126.796875 150.363281 126.980469 C 150.285156 127.164062 150.179688 127.328125 150.039062 127.46875 C 149.898438 127.609375 149.734375 127.71875 149.550781 127.792969 C 149.367188 127.871094 149.175781 127.90625 148.976562 127.90625 C 148.777344 127.90625 148.585938 127.871094 148.402344 127.792969 C 148.21875 127.71875 148.058594 127.609375 147.917969 127.46875 C 147.777344 127.328125 147.667969 127.164062 147.59375 126.980469 C 147.515625 126.796875 147.476562 126.609375 147.476562 126.410156 C 147.476562 126.210938 147.515625 126.019531 147.59375 125.835938 C 147.667969 125.652344 147.777344 125.488281 147.917969 125.347656 C 148.058594 125.207031 148.21875 125.101562 148.402344 125.023438 C 148.585938 124.949219 148.777344 124.910156 148.976562 124.910156 C 149.175781 124.910156 149.367188 124.949219 149.550781 125.023438 C 149.734375 125.101562 149.898438 125.207031 150.039062 125.347656 C 150.179688 125.488281 150.285156 125.652344 150.363281 125.835938 C 150.4375 126.019531 150.476562 126.210938 150.476562 126.410156 Z M 150.476562 126.410156 " fill-opacity="1" fill-rule="nonzero"/>
  <g clip-path="url(#dff87cb0e7)">
    <path fill="#efefef" d="M 300.316406 295.59375 C 300.316406 295.703125 300.273438 295.8125 300.183594 295.921875 C 300.09375 296.03125 299.957031 296.140625 299.777344 296.25 C 299.597656 296.359375 299.375 296.464844 299.105469 296.574219 C 298.835938 296.683594 298.523438 296.789062 298.167969 296.898438 C 297.808594 297.003906 297.410156 297.109375 296.964844 297.21875 C 296.519531 297.324219 296.03125 297.429688 295.5 297.535156 C 294.964844 297.636719 294.390625 297.742188 293.773438 297.84375 C 293.15625 297.949219 292.5 298.050781 291.796875 298.152344 C 291.097656 298.25 290.355469 298.351562 289.570312 298.449219 C 288.789062 298.550781 287.964844 298.648438 287.101562 298.742188 C 286.238281 298.839844 285.335938 298.933594 284.394531 299.027344 C 283.453125 299.121094 282.472656 299.214844 281.457031 299.304688 C 280.4375 299.394531 279.382812 299.484375 278.292969 299.574219 C 277.199219 299.660156 276.074219 299.746094 274.914062 299.832031 C 273.75 299.917969 272.554688 300 271.324219 300.082031 C 270.09375 300.160156 268.832031 300.242188 267.535156 300.316406 C 266.242188 300.394531 264.914062 300.46875 263.558594 300.542969 C 262.199219 300.617188 260.8125 300.6875 259.398438 300.757812 C 257.980469 300.828125 256.539062 300.894531 255.066406 300.960938 C 253.597656 301.023438 252.097656 301.089844 250.578125 301.148438 C 249.054688 301.210938 247.507812 301.269531 245.933594 301.324219 C 244.363281 301.378906 242.769531 301.433594 241.15625 301.484375 C 239.539062 301.539062 237.90625 301.585938 236.25 301.632812 C 234.59375 301.679688 232.917969 301.722656 231.226562 301.765625 C 229.535156 301.808594 227.824219 301.847656 226.101562 301.882812 C 224.375 301.921875 222.636719 301.957031 220.886719 301.988281 C 219.132812 302.019531 217.367188 302.046875 215.589844 302.074219 C 213.8125 302.101562 212.027344 302.125 210.230469 302.144531 C 208.433594 302.167969 206.628906 302.1875 204.820312 302.203125 C 203.007812 302.21875 201.1875 302.230469 199.367188 302.242188 C 197.542969 302.253906 195.71875 302.261719 193.886719 302.265625 C 192.058594 302.273438 190.226562 302.273438 188.394531 302.273438 C 186.566406 302.273438 184.734375 302.273438 182.90625 302.265625 C 181.074219 302.261719 179.25 302.253906 177.425781 302.242188 C 175.601562 302.230469 173.785156 302.21875 171.972656 302.203125 C 170.164062 302.1875 168.359375 302.167969 166.5625 302.144531 C 164.765625 302.125 162.976562 302.101562 161.203125 302.074219 C 159.425781 302.046875 157.660156 302.019531 155.90625 301.988281 C 154.15625 301.957031 152.414062 301.921875 150.691406 301.882812 C 148.964844 301.847656 147.257812 301.808594 145.566406 301.765625 C 143.875 301.722656 142.199219 301.679688 140.542969 301.632812 C 138.886719 301.585938 137.253906 301.539062 135.636719 301.484375 C 134.023438 301.433594 132.429688 301.378906 130.855469 301.324219 C 129.285156 301.269531 127.738281 301.210938 126.214844 301.148438 C 124.691406 301.089844 123.195312 301.023438 121.726562 300.960938 C 120.253906 300.894531 118.808594 300.828125 117.394531 300.757812 C 115.976562 300.6875 114.589844 300.617188 113.234375 300.542969 C 111.878906 300.46875 110.550781 300.394531 109.257812 300.316406 C 107.960938 300.242188 106.699219 300.160156 105.46875 300.082031 C 104.238281 300 103.042969 299.917969 101.878906 299.832031 C 100.71875 299.746094 99.589844 299.660156 98.5 299.574219 C 97.410156 299.484375 96.355469 299.394531 95.335938 299.304688 C 94.320312 299.214844 93.339844 299.121094 92.398438 299.027344 C 91.457031 298.933594 90.554688 298.839844 89.691406 298.742188 C 88.828125 298.648438 88.003906 298.550781 87.21875 298.449219 C 86.4375 298.351562 85.695312 298.25 84.996094 298.152344 C 84.292969 298.050781 83.632812 297.949219 83.015625 297.84375 C 82.402344 297.742188 81.824219 297.636719 81.292969 297.535156 C 80.761719 297.429688 80.273438 297.324219 79.828125 297.21875 C 79.382812 297.109375 78.984375 297.003906 78.625 296.898438 C 78.269531 296.789062 77.957031 296.683594 77.6875 296.574219 C 77.417969 296.464844 77.195312 296.359375 77.015625 296.25 C 76.835938 296.140625 76.699219 296.03125 76.609375 295.921875 C 76.519531 295.8125 76.476562 295.703125 76.476562 295.59375 C 76.476562 295.484375 76.519531 295.375 76.609375 295.265625 C 76.699219 295.15625 76.835938 295.046875 77.015625 294.9375 C 77.195312 294.832031 77.417969 294.722656 77.6875 294.613281 C 77.957031 294.503906 78.269531 294.398438 78.625 294.289062 C 78.984375 294.183594 79.382812 294.078125 79.828125 293.972656 C 80.273438 293.863281 80.761719 293.757812 81.292969 293.65625 C 81.824219 293.550781 82.402344 293.445312 83.015625 293.34375 C 83.632812 293.242188 84.292969 293.136719 84.996094 293.039062 C 85.695312 292.9375 86.4375 292.835938 87.21875 292.738281 C 88.003906 292.640625 88.828125 292.542969 89.691406 292.445312 C 90.554688 292.347656 91.457031 292.253906 92.398438 292.160156 C 93.339844 292.066406 94.320312 291.972656 95.335938 291.882812 C 96.355469 291.792969 97.410156 291.703125 98.5 291.613281 C 99.589844 291.527344 100.71875 291.441406 101.878906 291.355469 C 103.042969 291.269531 104.238281 291.1875 105.46875 291.109375 C 106.699219 291.027344 107.960938 290.949219 109.257812 290.871094 C 110.550781 290.792969 111.878906 290.71875 113.234375 290.644531 C 114.589844 290.570312 115.976562 290.5 117.394531 290.429688 C 118.808594 290.359375 120.253906 290.292969 121.726562 290.226562 C 123.195312 290.164062 124.691406 290.101562 126.214844 290.039062 C 127.738281 289.980469 129.285156 289.921875 130.855469 289.863281 C 132.429688 289.808594 134.023438 289.753906 135.636719 289.703125 C 137.253906 289.652344 138.886719 289.601562 140.542969 289.554688 C 142.199219 289.507812 143.875 289.464844 145.566406 289.421875 C 147.257812 289.378906 148.964844 289.339844 150.691406 289.304688 C 152.414062 289.265625 154.15625 289.234375 155.90625 289.199219 C 157.660156 289.167969 159.425781 289.140625 161.203125 289.113281 C 162.976562 289.085938 164.765625 289.0625 166.5625 289.042969 C 168.359375 289.019531 170.164062 289 171.972656 288.984375 C 173.785156 288.96875 175.601562 288.957031 177.425781 288.945312 C 179.25 288.933594 181.074219 288.925781 182.90625 288.921875 C 184.734375 288.917969 186.566406 288.914062 188.394531 288.914062 C 190.226562 288.914062 192.058594 288.917969 193.886719 288.921875 C 195.71875 288.925781 197.542969 288.933594 199.367188 288.945312 C 201.1875 288.957031 203.007812 288.96875 204.820312 288.984375 C 206.628906 289 208.433594 289.019531 210.230469 289.042969 C 212.027344 289.0625 213.8125 289.085938 215.589844 289.113281 C 217.367188 289.140625 219.132812 289.167969 220.886719 289.199219 C 222.636719 289.234375 224.375 289.265625 226.101562 289.304688 C 227.824219 289.339844 229.535156 289.378906 231.226562 289.421875 C 232.917969 289.464844 234.59375 289.507812 236.25 289.554688 C 237.90625 289.601562 239.539062 289.652344 241.15625 289.703125 C 242.769531 289.753906 244.363281 289.808594 245.933594 289.863281 C 247.507812 289.921875 249.054688 289.980469 250.578125 290.039062 C 252.097656 290.101562 253.597656 290.164062 255.066406 290.226562 C 256.539062 290.292969 257.984375 290.359375 259.398438 290.429688 C 260.8125 290.5 262.199219 290.570312 263.558594 290.644531 C 264.914062 290.71875 266.242188 290.792969 267.535156 290.871094 C 268.832031 290.949219 270.09375 291.027344 271.324219 291.109375 C 272.554688 291.1875 273.75 291.269531 274.914062 291.355469 C 276.074219 291.441406 277.199219 291.527344 278.292969 291.613281 C 279.382812 291.703125 280.4375 291.792969 281.457031 291.882812 C 282.472656 291.972656 283.453125 292.066406 284.394531 292.160156 C 285.335938 292.253906 286.238281 292.347656 287.101562 292.445312 C 287.964844 292.542969 288.789062 292.640625 289.570312 292.738281 C 290.355469 292.835938 291.097656 292.9375 291.796875 293.039062 C 292.5 293.136719 293.15625 293.242188 293.773438 293.34375 C 294.390625 293.445312 294.964844 293.550781 295.5 293.65625 C 296.03125 293.757812 296.519531 293.863281 296.964844 293.972656 C 297.410156 294.078125 297.808594 294.183594 298.167969 294.289062 C 298.523438 294.398438 298.835938 294.503906 299.105469 294.613281 C 299.375 294.722656 299.597656 294.832031 299.777344 294.9375 C 299.957031 295.046875 300.09375 295.15625 300.183594 295.265625 C 300.273438 295.375 300.316406 295.484375 300.316406 295.59375 Z M 300.316406 295.59375 " fill-opacity="1" fill-rule="nonzero"/>
  </g>
  <path fill="#37d4aa" d="M 259.511719 234.972656 L 158.78125 234.972656 C 155.320312 234.972656 152.515625 232.171875 152.515625 228.710938 L 152.515625 88.722656 C 152.515625 85.261719 155.320312 82.460938 158.78125 82.460938 L 259.511719 82.460938 C 262.972656 82.460938 265.773438 85.261719 265.773438 88.722656 L 265.773438 228.714844 C 265.773438 232.171875 262.972656 234.972656 259.511719 234.972656 Z M 259.511719 234.972656 " fill-opacity="1" fill-rule="nonzero"/>
  <path fill="#1f4b00" d="M 259.511719 235.441406 L 158.78125 235.441406 C 155.070312 235.441406 152.046875 232.425781 152.046875 228.710938 L 152.046875 88.722656 C 152.046875 85.015625 155.066406 81.992188 158.78125 81.992188 L 259.511719 81.992188 C 263.21875 81.992188 266.242188 85.007812 266.242188 88.722656 L 266.242188 228.714844 C 266.242188 232.425781 263.226562 235.441406 259.511719 235.441406 Z M 158.78125 82.929688 C 155.585938 82.929688 152.984375 85.53125 152.984375 88.722656 L 152.984375 228.714844 C 152.984375 231.910156 155.585938 234.511719 158.78125 234.511719 L 259.511719 234.511719 C 262.703125 234.511719 265.304688 231.910156 265.304688 228.714844 L 265.304688 88.722656 C 265.304688 85.53125 262.703125 82.929688 259.511719 82.929688 Z M 158.78125 82.929688 " fill-opacity="1" fill-rule="nonzero"/>
  <path fill="#efefef" d="M 230.570312 124.5 C 230.570312 136.582031 220.777344 146.378906 208.691406 146.378906 C 196.621094 146.378906 186.832031 136.582031 186.832031 124.5 C 186.832031 112.429688 196.628906 102.640625 208.691406 102.640625 L 208.691406 124.5 Z M 230.570312 124.5 " fill-opacity="1" fill-rule="nonzero"/>
  <path fill="#ddc272" d="M 233.6875 121.382812 L 211.808594 121.382812 L 211.808594 99.523438 C 223.890625 99.523438 233.6875 109.3125 233.6875 121.382812 Z M 233.6875 121.382812 " fill-opacity="1" fill-rule="nonzero"/>
  <path fill="#1f4b00" d="M 188.898438 143.445312 L 172.65625 143.445312 L 172.65625 142.78125 L 188.625 142.78125 L 199.347656 132.054688 L 199.820312 132.527344 Z M 188.898438 143.445312 " fill-opacity="1" fill-rule="nonzero"/>
  <path fill="#1f4b00" d="M 221.839844 112.394531 L 221.367188 111.917969 L 232.730469 100.558594 L 245.007812 100.558594 L 245.007812 101.230469 L 233.003906 101.230469 Z M 221.839844 112.394531 " fill-opacity="1" fill-rule="nonzero"/>
  <path fill="#ddc272" d="M 247.042969 100.898438 C 247.042969 101.066406 247.007812 101.230469 246.945312 101.386719 C 246.878906 101.542969 246.789062 101.683594 246.667969 101.800781 C 246.546875 101.921875 246.410156 102.015625 246.253906 102.078125 C 246.097656 102.144531 245.933594 102.175781 245.765625 102.175781 C 245.59375 102.175781 245.433594 102.144531 245.277344 102.078125 C 245.121094 102.015625 244.980469 101.921875 244.863281 101.800781 C 244.742188 101.683594 244.648438 101.542969 244.585938 101.386719 C 244.519531 101.230469 244.488281 101.066406 244.488281 100.898438 C 244.488281 100.730469 244.519531 100.566406 244.585938 100.410156 C 244.648438 100.253906 244.742188 100.113281 244.863281 99.996094 C 244.980469 99.875 245.121094 99.78125 245.277344 99.71875 C 245.433594 99.652344 245.59375 99.621094 245.765625 99.621094 C 245.933594 99.621094 246.097656 99.652344 246.253906 99.71875 C 246.410156 99.78125 246.546875 99.875 246.667969 99.996094 C 246.789062 100.113281 246.878906 100.253906 246.945312 100.410156 C 247.007812 100.566406 247.042969 100.730469 247.042969 100.898438 Z M 247.042969 100.898438 " fill-opacity="1" fill-rule="nonzero"/>
  <path fill="#ddc272" d="M 173.933594 143.113281 C 173.933594 143.28125 173.902344 143.445312 173.835938 143.601562 C 173.773438 143.757812 173.679688 143.898438 173.558594 144.015625 C 173.441406 144.136719 173.300781 144.230469 173.144531 144.292969 C 172.988281 144.359375 172.824219 144.390625 172.65625 144.390625 C 172.488281 144.390625 172.324219 144.359375 172.167969 144.292969 C 172.011719 144.230469 171.871094 144.136719 171.753906 144.015625 C 171.632812 143.898438 171.539062 143.757812 171.476562 143.601562 C 171.410156 143.445312 171.378906 143.28125 171.378906 143.113281 C 171.378906 142.945312 171.410156 142.78125 171.476562 142.625 C 171.539062 142.46875 171.632812 142.328125 171.753906 142.210938 C 171.871094 142.089844 172.011719 141.996094 172.167969 141.933594 C 172.324219 141.867188 172.488281 141.835938 172.65625 141.835938 C 172.824219 141.835938 172.988281 141.867188 173.144531 141.933594 C 173.300781 141.996094 173.441406 142.089844 173.558594 142.210938 C 173.679688 142.328125 173.773438 142.46875 173.835938 142.625 C 173.902344 142.78125 173.933594 142.945312 173.933594 143.113281 Z M 173.933594 143.113281 " fill-opacity="1" fill-rule="nonzero"/>
  <path fill="#ddc272" d="M 187.210938 173.660156 C 187.171875 176.105469 186.050781 178.289062 184.296875 179.753906 L 188.1875 183.710938 C 190.953125 181.230469 192.722656 177.644531 192.78125 173.660156 C 192.898438 166.152344 186.910156 160.074219 179.410156 160.074219 L 179.324219 165.652344 C 183.742188 165.644531 187.273438 169.234375 187.210938 173.660156 Z M 187.210938 173.660156 " fill-opacity="1" fill-rule="nonzero"/>
  <path fill="#efefef" d="M 165.609375 173.660156 C 165.492188 181.164062 171.484375 187.25 178.992188 187.25 C 182.511719 187.25 185.742188 185.910156 188.1875 183.707031 L 184.296875 179.75 C 182.882812 180.941406 181.050781 181.664062 179.074219 181.664062 C 174.652344 181.664062 171.117188 178.082031 171.183594 173.648438 L 165.609375 173.648438 Z M 165.609375 173.660156 " fill-opacity="1" fill-rule="nonzero"/>
  <path fill="#1f4b00" d="M 165.609375 173.660156 L 171.191406 173.660156 C 171.253906 169.234375 174.898438 165.644531 179.332031 165.644531 L 179.414062 160.066406 C 171.898438 160.074219 165.722656 166.152344 165.609375 173.660156 Z M 165.609375 173.660156 " fill-opacity="1" fill-rule="nonzero"/>
  <path fill="#1f4b00" d="M 177.558594 171.84375 L 177.558594 172.617188 L 175.941406 172.617188 L 175.941406 173.328125 C 176.078125 173.179688 176.332031 173.070312 176.632812 173.070312 C 177.453125 173.070312 177.773438 173.695312 177.773438 174.308594 C 177.773438 175.101562 177.308594 175.617188 176.46875 175.617188 C 175.621094 175.617188 175.132812 175.148438 175.101562 174.496094 L 175.96875 174.496094 C 176.007812 174.691406 176.15625 174.867188 176.441406 174.867188 C 176.78125 174.867188 176.925781 174.625 176.925781 174.300781 C 176.925781 173.960938 176.753906 173.777344 176.4375 173.777344 C 176.1875 173.777344 176.046875 173.914062 176 174.09375 L 175.144531 174.09375 L 175.144531 171.84375 Z M 177.558594 171.84375 " fill-opacity="1" fill-rule="nonzero"/>
  <path fill="#1f4b00" d="M 179.714844 171.773438 C 180.789062 171.773438 181.167969 172.578125 181.167969 173.6875 C 181.167969 174.800781 180.789062 175.609375 179.714844 175.609375 C 178.640625 175.609375 178.261719 174.800781 178.261719 173.6875 C 178.261719 172.578125 178.640625 171.773438 179.714844 171.773438 Z M 179.714844 172.597656 C 179.191406 172.597656 179.128906 173.109375 179.128906 173.6875 C 179.128906 174.289062 179.191406 174.78125 179.714844 174.78125 C 180.234375 174.78125 180.300781 174.289062 180.300781 173.6875 C 180.300781 173.109375 180.234375 172.597656 179.714844 172.597656 Z M 179.714844 172.597656 " fill-opacity="1" fill-rule="nonzero"/>
  <path fill="#1f4b00" d="M 182.417969 171.929688 C 182.910156 171.929688 183.28125 172.226562 183.28125 172.800781 C 183.28125 173.375 182.914062 173.675781 182.417969 173.675781 C 181.929688 173.675781 181.558594 173.375 181.558594 172.800781 C 181.558594 172.226562 181.929688 171.929688 182.417969 171.929688 Z M 182.171875 172.800781 C 182.171875 173.042969 182.261719 173.152344 182.417969 173.152344 C 182.574219 173.152344 182.671875 173.042969 182.671875 172.800781 C 182.671875 172.554688 182.574219 172.441406 182.417969 172.441406 C 182.261719 172.441406 182.171875 172.554688 182.171875 172.800781 Z M 184.21875 171.988281 L 185.070312 171.988281 L 183.085938 175.625 L 182.230469 175.625 Z M 184.875 173.933594 C 185.367188 173.933594 185.738281 174.230469 185.738281 174.808594 C 185.738281 175.382812 185.371094 175.683594 184.875 175.683594 C 184.386719 175.683594 184.015625 175.382812 184.015625 174.808594 C 184.023438 174.230469 184.386719 173.933594 184.875 173.933594 Z M 184.621094 174.808594 C 184.621094 175.050781 184.714844 175.160156 184.871094 175.160156 C 185.027344 175.160156 185.125 175.050781 185.125 174.808594 C 185.125 174.566406 185.027344 174.449219 184.871094 174.449219 C 184.714844 174.449219 184.621094 174.5625 184.621094 174.808594 Z M 184.621094 174.808594 " fill-opacity="1" fill-rule="nonzero"/>
  <path fill="#37d4aa" d="M 203.839844 172.554688 L 207.605469 172.566406 L 207.574219 182.019531 L 203.808594 182.007812 Z M 203.839844 172.554688 " fill-opacity="1" fill-rule="nonzero"/>
  <path fill="#1f4b00" d="M 211.46875 169.082031 L 215.238281 169.09375 L 215.195312 182.042969 L 211.429688 182.03125 Z M 211.46875 169.082031 " fill-opacity="1" fill-rule="nonzero"/>
  <path fill="#efefef" d="M 219.109375 163.945312 L 222.878906 163.957031 L 222.820312 182.0625 L 219.054688 182.050781 Z M 219.109375 163.945312 " fill-opacity="1" fill-rule="nonzero"/>
  <path fill="#1f4b00" d="M 226.714844 169.375 L 230.480469 169.386719 L 230.441406 182.09375 L 226.675781 182.082031 Z M 226.714844 169.375 " fill-opacity="1" fill-rule="nonzero"/>
  <path fill="#efefef" d="M 234.308594 175.839844 L 238.078125 175.851562 L 238.058594 182.113281 L 234.289062 182.101562 Z M 234.308594 175.839844 " fill-opacity="1" fill-rule="nonzero"/>
  <path fill="#efefef" d="M 249.597656 160.292969 L 253.367188 160.304688 L 253.296875 182.160156 L 249.53125 182.148438 Z M 249.597656 160.292969 " fill-opacity="1" fill-rule="nonzero"/>
  <path fill="#1f4b00" d="M 241.964844 165.183594 L 245.734375 165.195312 L 245.679688 182.140625 L 241.914062 182.128906 Z M 241.964844 165.183594 " fill-opacity="1" fill-rule="nonzero"/>
  <path fill="#efefef" d="M 166.867188 95.859375 L 184.796875 95.859375 L 184.796875 97.5625 L 166.867188 97.5625 Z M 166.867188 95.859375 " fill-opacity="1" fill-rule="nonzero"/>
  <path fill="#efefef" d="M 166.867188 100.769531 L 184.796875 100.769531 L 184.796875 102.46875 L 166.867188 102.46875 Z M 166.867188 100.769531 " fill-opacity="1" fill-rule="nonzero"/>
  <path fill="#1f4b00" d="M 205.894531 162.980469 L 205.601562 162.378906 L 223.851562 153.253906 L 236.484375 158.34375 L 257.242188 145.324219 L 283.070312 155.386719 L 282.832031 156.011719 L 257.3125 146.066406 L 236.546875 159.089844 L 223.886719 153.984375 Z M 205.894531 162.980469 " fill-opacity="1" fill-rule="nonzero"/>
  <path fill="#e9a082" d="M 225.566406 153.808594 C 225.566406 154.070312 225.515625 154.324219 225.414062 154.566406 C 225.316406 154.808594 225.171875 155.023438 224.984375 155.210938 C 224.800781 155.394531 224.585938 155.539062 224.34375 155.640625 C 224.101562 155.738281 223.847656 155.789062 223.585938 155.789062 C 223.324219 155.789062 223.070312 155.738281 222.828125 155.640625 C 222.585938 155.539062 222.371094 155.394531 222.183594 155.210938 C 222 155.023438 221.855469 154.808594 221.753906 154.566406 C 221.652344 154.324219 221.605469 154.070312 221.605469 153.808594 C 221.605469 153.546875 221.652344 153.292969 221.753906 153.050781 C 221.855469 152.808594 222 152.59375 222.183594 152.40625 C 222.371094 152.222656 222.585938 152.078125 222.828125 151.976562 C 223.070312 151.878906 223.324219 151.828125 223.585938 151.828125 C 223.847656 151.828125 224.101562 151.878906 224.34375 151.976562 C 224.585938 152.078125 224.800781 152.222656 224.984375 152.40625 C 225.171875 152.59375 225.316406 152.808594 225.414062 153.050781 C 225.515625 153.292969 225.566406 153.546875 225.566406 153.808594 Z M 225.566406 153.808594 " fill-opacity="1" fill-rule="nonzero"/>
  <path fill="#e9a082" d="M 207.917969 162.867188 C 207.917969 163.132812 207.867188 163.382812 207.765625 163.625 C 207.664062 163.871094 207.523438 164.082031 207.335938 164.269531 C 207.152344 164.457031 206.9375 164.597656 206.695312 164.699219 C 206.449219 164.800781 206.199219 164.851562 205.933594 164.851562 C 205.671875 164.851562 205.417969 164.800781 205.175781 164.699219 C 204.933594 164.597656 204.71875 164.457031 204.535156 164.269531 C 204.347656 164.082031 204.207031 163.871094 204.105469 163.625 C 204.003906 163.382812 203.953125 163.132812 203.953125 162.867188 C 203.953125 162.605469 204.003906 162.351562 204.105469 162.109375 C 204.207031 161.867188 204.347656 161.652344 204.535156 161.46875 C 204.71875 161.28125 204.933594 161.136719 205.175781 161.039062 C 205.417969 160.9375 205.671875 160.886719 205.933594 160.886719 C 206.199219 160.886719 206.449219 160.9375 206.695312 161.039062 C 206.9375 161.136719 207.152344 161.28125 207.335938 161.46875 C 207.523438 161.652344 207.664062 161.867188 207.765625 162.109375 C 207.867188 162.351562 207.917969 162.605469 207.917969 162.867188 Z M 207.917969 162.867188 " fill-opacity="1" fill-rule="nonzero"/>
  <path fill="#e9a082" d="M 238.496094 158.714844 C 238.496094 158.980469 238.445312 159.230469 238.347656 159.476562 C 238.246094 159.71875 238.101562 159.933594 237.917969 160.117188 C 237.730469 160.304688 237.515625 160.445312 237.273438 160.546875 C 237.03125 160.648438 236.777344 160.699219 236.515625 160.699219 C 236.253906 160.699219 236 160.648438 235.757812 160.546875 C 235.515625 160.445312 235.300781 160.304688 235.113281 160.117188 C 234.929688 159.933594 234.785156 159.71875 234.683594 159.476562 C 234.585938 159.230469 234.535156 158.980469 234.535156 158.714844 C 234.535156 158.453125 234.585938 158.203125 234.683594 157.957031 C 234.785156 157.714844 234.929688 157.5 235.113281 157.316406 C 235.300781 157.128906 235.515625 156.988281 235.757812 156.886719 C 236 156.785156 236.253906 156.734375 236.515625 156.734375 C 236.777344 156.734375 237.03125 156.785156 237.273438 156.886719 C 237.515625 156.988281 237.730469 157.128906 237.917969 157.316406 C 238.101562 157.5 238.246094 157.714844 238.347656 157.957031 C 238.445312 158.203125 238.496094 158.453125 238.496094 158.714844 Z M 238.496094 158.714844 " fill-opacity="1" fill-rule="nonzero"/>
  <path fill="#e9a082" d="M 259.222656 146.300781 C 259.222656 146.5625 259.171875 146.816406 259.074219 147.058594 C 258.972656 147.300781 258.828125 147.515625 258.644531 147.703125 C 258.457031 147.886719 258.242188 148.03125 258 148.132812 C 257.757812 148.230469 257.503906 148.28125 257.242188 148.28125 C 256.980469 148.28125 256.726562 148.230469 256.484375 148.132812 C 256.242188 148.03125 256.027344 147.886719 255.839844 147.703125 C 255.65625 147.515625 255.511719 147.300781 255.410156 147.058594 C 255.3125 146.816406 255.261719 146.5625 255.261719 146.300781 C 255.261719 146.039062 255.3125 145.785156 255.410156 145.542969 C 255.511719 145.300781 255.65625 145.085938 255.839844 144.898438 C 256.027344 144.714844 256.242188 144.570312 256.484375 144.46875 C 256.726562 144.371094 256.980469 144.320312 257.242188 144.320312 C 257.503906 144.320312 257.757812 144.371094 258 144.46875 C 258.242188 144.570312 258.457031 144.714844 258.644531 144.898438 C 258.828125 145.085938 258.972656 145.300781 259.074219 145.542969 C 259.171875 145.785156 259.222656 146.039062 259.222656 146.300781 Z M 259.222656 146.300781 " fill-opacity="1" fill-rule="nonzero"/>
  <path fill="#e9a082" d="M 286.871094 155.835938 C 286.871094 156.308594 286.78125 156.765625 286.597656 157.207031 C 286.417969 157.644531 286.160156 158.03125 285.824219 158.367188 C 285.488281 158.703125 285.101562 158.960938 284.664062 159.140625 C 284.222656 159.324219 283.769531 159.414062 283.292969 159.414062 C 282.820312 159.414062 282.363281 159.324219 281.925781 159.140625 C 281.484375 158.960938 281.097656 158.703125 280.761719 158.367188 C 280.425781 158.03125 280.167969 157.644531 279.988281 157.207031 C 279.804688 156.765625 279.714844 156.308594 279.714844 155.835938 C 279.714844 155.363281 279.804688 154.90625 279.988281 154.464844 C 280.167969 154.027344 280.425781 153.640625 280.761719 153.304688 C 281.097656 152.96875 281.484375 152.710938 281.925781 152.53125 C 282.363281 152.347656 282.820312 152.257812 283.292969 152.257812 C 283.769531 152.257812 284.222656 152.347656 284.664062 152.53125 C 285.101562 152.710938 285.488281 152.96875 285.824219 153.304688 C 286.160156 153.640625 286.417969 154.027344 286.597656 154.464844 C 286.78125 154.90625 286.871094 155.363281 286.871094 155.835938 Z M 286.871094 155.835938 " fill-opacity="1" fill-rule="nonzero"/>
  <path fill="#efefef" d="M 256.597656 226.753906 L 161.699219 226.753906 C 160.691406 226.753906 159.875 225.933594 159.875 224.929688 L 159.875 199.125 C 159.875 198.117188 160.695312 197.300781 161.699219 197.300781 L 256.589844 197.300781 C 257.601562 197.300781 258.414062 198.121094 258.414062 199.125 L 258.414062 224.929688 C 258.421875 225.941406 257.601562 226.753906 256.597656 226.753906 Z M 256.597656 226.753906 " fill-opacity="1" fill-rule="nonzero"/>
  <path fill="#1f4b00" d="M 256.597656 226.90625 L 161.699219 226.90625 C 160.613281 226.90625 159.726562 226.019531 159.726562 224.929688 L 159.726562 199.125 C 159.726562 198.039062 160.613281 197.152344 161.699219 197.152344 L 256.597656 197.152344 C 257.683594 197.152344 258.570312 198.039062 258.570312 199.125 L 258.570312 224.929688 C 258.566406 226.019531 257.683594 226.90625 256.597656 226.90625 Z M 161.699219 197.445312 C 160.773438 197.445312 160.019531 198.199219 160.019531 199.125 L 160.019531 224.929688 C 160.019531 225.855469 160.773438 226.609375 161.699219 226.609375 L 256.597656 226.609375 C 257.523438 226.609375 258.277344 225.855469 258.277344 224.929688 L 258.277344 199.125 C 258.277344 198.199219 257.523438 197.445312 256.597656 197.445312 Z M 161.699219 197.445312 " fill-opacity="1" fill-rule="nonzero"/>
  <path fill="#1f4b00" d="M 234.066406 210.089844 L 221.597656 206.542969 L 210.375 209.9375 L 210.335938 209.925781 L 192.214844 205.3125 L 181 208.707031 L 180.960938 208.699219 L 165.65625 205.664062 L 165.714844 205.363281 L 180.984375 208.394531 L 192.210938 204.992188 L 192.25 205.003906 L 210.367188 209.621094 L 221.589844 206.222656 L 234.011719 209.757812 L 244.414062 203.257812 L 252.222656 204.710938 L 252.171875 205.011719 L 244.472656 203.578125 Z M 234.066406 210.089844 " fill-opacity="1" fill-rule="nonzero"/>
  <path fill="#1f4b00" d="M 180.960938 221.59375 L 180.652344 221.59375 L 180.652344 220.347656 L 180.960938 220.347656 Z M 180.960938 219.101562 L 180.652344 219.101562 L 180.652344 217.859375 L 180.960938 217.859375 Z M 180.960938 216.605469 L 180.652344 216.605469 L 180.652344 215.363281 L 180.960938 215.363281 Z M 180.960938 214.109375 L 180.652344 214.109375 L 180.652344 212.867188 L 180.960938 212.867188 Z M 180.960938 211.613281 L 180.652344 211.613281 L 180.652344 210.367188 L 180.960938 210.367188 Z M 180.960938 211.613281 " fill-opacity="1" fill-rule="nonzero"/>
  <path fill="#1f4b00" d="M 192.367188 223.488281 L 192.058594 223.488281 L 192.058594 222.34375 L 192.367188 222.34375 Z M 192.367188 221.117188 L 192.058594 221.117188 L 192.058594 219.890625 L 192.367188 219.890625 Z M 192.367188 218.667969 L 192.058594 218.667969 L 192.058594 217.441406 L 192.367188 217.441406 Z M 192.367188 216.207031 L 192.058594 216.207031 L 192.058594 214.984375 L 192.367188 214.984375 Z M 192.367188 213.75 L 192.058594 213.75 L 192.058594 212.527344 L 192.367188 212.527344 Z M 192.367188 211.292969 L 192.058594 211.292969 L 192.058594 210.070312 L 192.367188 210.070312 Z M 192.367188 208.835938 L 192.058594 208.835938 L 192.058594 207.613281 L 192.367188 207.613281 Z M 192.367188 206.378906 L 192.058594 206.378906 L 192.058594 205.15625 L 192.367188 205.15625 Z M 192.367188 206.378906 " fill-opacity="1" fill-rule="nonzero"/>
  <path fill="#1f4b00" d="M 210.523438 223.289062 L 210.21875 223.289062 L 210.21875 222.0625 L 210.523438 222.0625 Z M 210.523438 220.828125 L 210.21875 220.828125 L 210.21875 219.605469 L 210.523438 219.605469 Z M 210.523438 218.378906 L 210.21875 218.378906 L 210.21875 217.152344 L 210.523438 217.152344 Z M 210.523438 215.921875 L 210.21875 215.921875 L 210.21875 214.695312 L 210.523438 214.695312 Z M 210.523438 213.464844 L 210.21875 213.464844 L 210.21875 212.238281 L 210.523438 212.238281 Z M 210.523438 211.007812 L 210.21875 211.007812 L 210.21875 209.78125 L 210.523438 209.78125 Z M 210.523438 211.007812 " fill-opacity="1" fill-rule="nonzero"/>
  <path fill="#1f4b00" d="M 234.429688 223.28125 L 234.125 223.28125 L 234.125 222.054688 L 234.429688 222.054688 Z M 234.429688 220.824219 L 234.125 220.824219 L 234.125 219.597656 L 234.429688 219.597656 Z M 234.429688 218.367188 L 234.125 218.367188 L 234.125 217.140625 L 234.429688 217.140625 Z M 234.429688 215.910156 L 234.125 215.910156 L 234.125 214.683594 L 234.429688 214.683594 Z M 234.429688 213.453125 L 234.125 213.453125 L 234.125 212.226562 L 234.429688 212.226562 Z M 234.429688 210.996094 L 234.125 210.996094 L 234.125 209.769531 L 234.429688 209.769531 Z M 234.429688 210.996094 " fill-opacity="1" fill-rule="nonzero"/>
  <path fill="#1f4b00" d="M 221.746094 222.347656 L 221.441406 222.347656 L 221.441406 221.125 L 221.746094 221.125 Z M 221.746094 219.890625 L 221.441406 219.890625 L 221.441406 218.667969 L 221.746094 218.667969 Z M 221.746094 217.433594 L 221.441406 217.433594 L 221.441406 216.207031 L 221.746094 216.207031 Z M 221.746094 214.976562 L 221.441406 214.976562 L 221.441406 213.75 L 221.746094 213.75 Z M 221.746094 212.519531 L 221.441406 212.519531 L 221.441406 211.292969 L 221.746094 211.292969 Z M 221.746094 210.070312 L 221.441406 210.070312 L 221.441406 208.84375 L 221.746094 208.84375 Z M 221.746094 207.613281 L 221.441406 207.613281 L 221.441406 206.386719 L 221.746094 206.386719 Z M 221.746094 207.613281 " fill-opacity="1" fill-rule="nonzero"/>
  <path fill="#1f4b00" d="M 244.597656 223.488281 L 244.292969 223.488281 L 244.292969 223.066406 L 244.597656 223.066406 Z M 244.597656 221.839844 L 244.292969 221.839844 L 244.292969 220.613281 L 244.597656 220.613281 Z M 244.597656 219.382812 L 244.292969 219.382812 L 244.292969 218.15625 L 244.597656 218.15625 Z M 244.597656 216.925781 L 244.292969 216.925781 L 244.292969 215.699219 L 244.597656 215.699219 Z M 244.597656 214.46875 L 244.292969 214.46875 L 244.292969 213.242188 L 244.597656 213.242188 Z M 244.597656 212.019531 L 244.292969 212.019531 L 244.292969 210.792969 L 244.597656 210.792969 Z M 244.597656 209.5625 L 244.292969 209.5625 L 244.292969 208.335938 L 244.597656 208.335938 Z M 244.597656 207.105469 L 244.292969 207.105469 L 244.292969 205.878906 L 244.597656 205.878906 Z M 244.597656 204.648438 L 244.292969 204.648438 L 244.292969 203.421875 L 244.597656 203.421875 Z M 244.597656 204.648438 " fill-opacity="1" fill-rule="nonzero"/>
  <path fill="#ddc272" d="M 176.933594 224.324219 L 183.867188 224.324219 L 183.867188 225.332031 L 176.933594 225.332031 Z M 176.933594 224.324219 " fill-opacity="1" fill-rule="nonzero"/>
  <path fill="#37d4aa" d="M 188.363281 224.324219 L 195.296875 224.324219 L 195.296875 225.332031 L 188.363281 225.332031 Z M 188.363281 224.324219 " fill-opacity="1" fill-rule="nonzero"/>
  <path fill="#ddc272" d="M 205.679688 224.324219 L 212.617188 224.324219 L 212.617188 225.332031 L 205.679688 225.332031 Z M 205.679688 224.324219 " fill-opacity="1" fill-rule="nonzero"/>
  <path fill="#37d4aa" d="M 218.28125 224.324219 L 225.214844 224.324219 L 225.214844 225.332031 L 218.28125 225.332031 Z M 218.28125 224.324219 " fill-opacity="1" fill-rule="nonzero"/>
  <path fill="#37d4aa" d="M 230.964844 224.324219 L 237.898438 224.324219 L 237.898438 225.332031 L 230.964844 225.332031 Z M 230.964844 224.324219 " fill-opacity="1" fill-rule="nonzero"/>
  <path fill="#ddc272" d="M 240.316406 224.324219 L 247.25 224.324219 L 247.25 225.332031 L 240.316406 225.332031 Z M 240.316406 224.324219 " fill-opacity="1" fill-rule="nonzero"/>
  <path fill="#e9a082" d="M 181.644531 208.558594 C 181.644531 208.785156 181.5625 208.976562 181.402344 209.136719 C 181.242188 209.296875 181.050781 209.378906 180.824219 209.378906 C 180.597656 209.378906 180.402344 209.296875 180.242188 209.136719 C 180.082031 208.976562 180 208.785156 180 208.558594 C 180 208.332031 180.082031 208.136719 180.242188 207.976562 C 180.402344 207.816406 180.597656 207.734375 180.824219 207.734375 C 181.050781 207.734375 181.242188 207.816406 181.402344 207.976562 C 181.5625 208.136719 181.644531 208.332031 181.644531 208.558594 Z M 181.644531 208.558594 " fill-opacity="1" fill-rule="nonzero"/>
  <path fill="#e9a082" d="M 193.082031 205.167969 C 193.082031 205.394531 193.003906 205.589844 192.84375 205.75 C 192.679688 205.910156 192.488281 205.988281 192.261719 205.988281 C 192.035156 205.988281 191.839844 205.910156 191.679688 205.75 C 191.519531 205.589844 191.441406 205.394531 191.441406 205.167969 C 191.441406 204.941406 191.519531 204.746094 191.679688 204.585938 C 191.839844 204.425781 192.035156 204.347656 192.261719 204.347656 C 192.488281 204.347656 192.679688 204.425781 192.84375 204.585938 C 193.003906 204.746094 193.082031 204.941406 193.082031 205.167969 Z M 193.082031 205.167969 " fill-opacity="1" fill-rule="nonzero"/>
  <path fill="#e9a082" d="M 211.195312 209.777344 C 211.195312 210.003906 211.113281 210.195312 210.953125 210.355469 C 210.792969 210.515625 210.601562 210.597656 210.375 210.597656 C 210.148438 210.597656 209.953125 210.515625 209.792969 210.355469 C 209.632812 210.195312 209.550781 210.003906 209.550781 209.777344 C 209.550781 209.550781 209.632812 209.355469 209.792969 209.195312 C 209.953125 209.035156 210.148438 208.953125 210.375 208.953125 C 210.601562 208.953125 210.792969 209.035156 210.953125 209.195312 C 211.113281 209.355469 211.195312 209.550781 211.195312 209.777344 Z M 211.195312 209.777344 " fill-opacity="1" fill-rule="nonzero"/>
  <path fill="#e9a082" d="M 222.410156 206.378906 C 222.410156 206.605469 222.332031 206.800781 222.171875 206.960938 C 222.011719 207.121094 221.816406 207.203125 221.589844 207.203125 C 221.363281 207.203125 221.171875 207.121094 221.011719 206.960938 C 220.851562 206.800781 220.769531 206.605469 220.769531 206.378906 C 220.769531 206.152344 220.851562 205.960938 221.011719 205.800781 C 221.171875 205.640625 221.363281 205.558594 221.589844 205.558594 C 221.816406 205.558594 222.011719 205.640625 222.171875 205.800781 C 222.332031 205.960938 222.410156 206.152344 222.410156 206.378906 Z M 222.410156 206.378906 " fill-opacity="1" fill-rule="nonzero"/>
  <path fill="#e9a082" d="M 234.839844 209.742188 C 234.839844 209.96875 234.761719 210.164062 234.601562 210.324219 C 234.441406 210.484375 234.246094 210.566406 234.019531 210.566406 C 233.792969 210.566406 233.597656 210.484375 233.4375 210.324219 C 233.277344 210.164062 233.199219 209.96875 233.199219 209.742188 C 233.199219 209.515625 233.277344 209.324219 233.4375 209.164062 C 233.597656 209.003906 233.792969 208.921875 234.019531 208.921875 C 234.246094 208.921875 234.441406 209.003906 234.601562 209.164062 C 234.761719 209.324219 234.839844 209.515625 234.839844 209.742188 Z M 234.839844 209.742188 " fill-opacity="1" fill-rule="nonzero"/>
  <path fill="#e9a082" d="M 245.269531 203.414062 C 245.269531 203.640625 245.1875 203.835938 245.027344 203.996094 C 244.867188 204.15625 244.675781 204.234375 244.449219 204.234375 C 244.222656 204.234375 244.027344 204.15625 243.867188 203.996094 C 243.707031 203.835938 243.625 203.640625 243.625 203.414062 C 243.625 203.1875 243.707031 202.996094 243.867188 202.835938 C 244.027344 202.671875 244.222656 202.59375 244.449219 202.59375 C 244.675781 202.59375 244.867188 202.671875 245.027344 202.835938 C 245.1875 202.996094 245.269531 203.1875 245.269531 203.414062 Z M 245.269531 203.414062 " fill-opacity="1" fill-rule="nonzero"/>
  <path fill="#efefef" d="M 244.355469 104.035156 L 259.042969 104.035156 L 259.042969 105.625 L 244.355469 105.625 Z M 244.355469 104.035156 " fill-opacity="1" fill-rule="nonzero"/>
  <path fill="#efefef" d="M 244.355469 109.1875 L 259.042969 109.1875 L 259.042969 110.78125 L 244.355469 110.78125 Z M 244.355469 109.1875 " fill-opacity="1" fill-rule="nonzero"/>
  <path fill="#efefef" d="M 244.355469 114.351562 L 259.042969 114.351562 L 259.042969 115.941406 L 244.355469 115.941406 Z M 244.355469 114.351562 " fill-opacity="1" fill-rule="nonzero"/>
  <path fill="#e9a082" d="M 102.433594 274.761719 C 102.433594 274.761719 108.523438 275.667969 108.800781 274.84375 C 109.988281 271.289062 110.816406 268.121094 111.691406 265.167969 C 111.773438 264.882812 111.859375 264.597656 111.945312 264.308594 C 113.15625 260.164062 114.109375 251.808594 114.84375 248.238281 C 115.585938 244.625 116.101562 241.515625 116.449219 239.328125 C 116.695312 237.722656 116.859375 236.617188 116.9375 236.152344 C 117.347656 233.867188 124.980469 203.25 124.980469 203.25 L 124.289062 201.003906 L 119.558594 199.425781 L 110.992188 199.445312 L 110.632812 201.171875 L 109.902344 204.730469 C 109.902344 204.730469 109.460938 216.800781 108.457031 225.039062 C 108.164062 227.472656 107.824219 229.570312 107.433594 230.925781 C 106.351562 234.699219 106.007812 240.234375 105.726562 245.246094 L 105.699219 245.722656 C 105.550781 248.300781 105.421875 250.71875 105.203125 252.664062 C 105.191406 252.785156 105.179688 252.910156 105.164062 253.035156 C 105.140625 253.242188 105.113281 253.464844 105.085938 253.699219 C 104.460938 258.800781 102.433594 274.761719 102.433594 274.761719 Z M 102.433594 274.761719 " fill-opacity="1" fill-rule="nonzero"/>
  <path fill="#e9a082" d="M 109.902344 204.738281 C 109.902344 204.738281 111.488281 215.367188 112.160156 222.621094 C 112.832031 229.875 114.550781 230.738281 114.878906 239.707031 C 115.203125 248.671875 118.320312 279.175781 118.320312 279.175781 L 112.328125 281.488281 C 112.328125 281.488281 111.566406 279.90625 110.5625 276.4375 C 108.769531 270.28125 105.992188 252.863281 105.675781 249.214844 C 105.179688 243.511719 104.769531 239.445312 103.863281 237.183594 C 102.957031 234.921875 96.785156 218.855469 94.007812 206.949219 L 101.203125 200.046875 Z M 109.902344 204.738281 " fill-opacity="1" fill-rule="nonzero"/>
  <path fill="#1f4b00" d="M 109.371094 272.046875 C 109.3125 272.046875 109.265625 272.007812 109.253906 271.953125 C 107.640625 265.410156 105.824219 252.304688 105.558594 249.234375 C 105.550781 249.167969 105.601562 249.105469 105.667969 249.097656 C 105.734375 249.089844 105.796875 249.144531 105.804688 249.207031 C 106.070312 252.269531 107.882812 265.359375 109.492188 271.894531 C 109.511719 271.960938 109.46875 272.027344 109.402344 272.046875 C 109.390625 272.039062 109.375 272.046875 109.371094 272.046875 Z M 109.371094 272.046875 " fill-opacity="1" fill-rule="nonzero"/>
  <path fill="#e9a082" d="M 115.113281 274.683594 L 116.625 274.496094 C 116.625 274.496094 117.632812 277.003906 118.292969 278.503906 C 118.957031 280.003906 119.355469 282.65625 119.734375 284.828125 C 120.109375 286.996094 120.9375 289.921875 120.9375 289.921875 C 120.9375 289.921875 122.164062 293.855469 121.285156 294.472656 C 120.410156 295.09375 115.242188 296.160156 114.074219 295.515625 C 112.910156 294.871094 111.9375 294.53125 111.9375 294.53125 C 111.9375 294.53125 111.925781 288.671875 111.910156 285.382812 C 111.898438 282.089844 111.285156 275.15625 111.285156 275.15625 L 115.113281 274.683594 " fill-opacity="1" fill-rule="nonzero"/>
  <path fill="#1f4b00" d="M 120.945312 289.929688 C 120.945312 289.929688 120.769531 291.652344 117.765625 291.964844 C 114.757812 292.277344 112.277344 291.242188 111.886719 288.980469 C 111.886719 288.980469 111.253906 295.371094 111.753906 296.121094 C 112.257812 296.871094 113.75 298.730469 114.601562 298.9375 C 115.457031 299.144531 120.679688 299.085938 121.304688 298.410156 C 121.929688 297.730469 122.203125 295.367188 122.085938 293.640625 C 121.96875 291.90625 120.945312 289.929688 120.945312 289.929688 Z M 120.945312 289.929688 " fill-opacity="1" fill-rule="nonzero"/>
  <path fill="#e9a082" d="M 103.632812 271.261719 C 103.632812 271.261719 102.625 273.773438 101.964844 275.273438 C 101.300781 276.769531 100.902344 279.421875 100.523438 281.59375 C 100.148438 283.765625 99.320312 286.691406 99.320312 286.691406 C 99.320312 286.691406 98.09375 290.621094 98.972656 291.242188 C 99.847656 291.859375 105.015625 292.929688 106.183594 292.28125 C 107.347656 291.636719 108.320312 291.300781 108.320312 291.300781 C 108.320312 291.300781 108.332031 285.441406 108.347656 282.148438 C 108.359375 278.855469 108.972656 271.921875 108.972656 271.921875 Z M 103.632812 271.261719 " fill-opacity="1" fill-rule="nonzero"/>
  <path fill="#1f4b00" d="M 99.320312 286.691406 C 99.320312 286.691406 99.496094 288.410156 102.5 288.722656 C 105.503906 289.03125 107.988281 288 108.378906 285.738281 C 108.378906 285.738281 109.011719 292.132812 108.507812 292.882812 C 108.007812 293.632812 106.515625 295.488281 105.660156 295.699219 C 104.808594 295.90625 99.585938 295.847656 98.960938 295.171875 C 98.335938 294.492188 98.0625 292.125 98.179688 290.398438 C 98.296875 288.671875 99.320312 286.691406 99.320312 286.691406 Z M 99.320312 286.691406 " fill-opacity="1" fill-rule="nonzero"/>
  <path fill="#ddc272" d="M 123.976562 188.859375 C 123.976562 188.859375 127.46875 198.410156 126.042969 207.527344 C 124.613281 216.644531 120.480469 232.320312 120.480469 232.320312 C 120.480469 232.320312 110.367188 236.597656 101.535156 233.746094 C 101.535156 233.746094 87.925781 201.871094 93.804688 189.371094 C 93.804688 189.363281 108.09375 185.796875 123.976562 188.859375 Z M 123.976562 188.859375 " fill-opacity="1" fill-rule="nonzero"/>
  <path fill="#1f4b00" d="M 108.894531 111.542969 C 108.894531 111.542969 100.84375 111.722656 98.125 116.617188 C 95.402344 121.507812 96.335938 127.261719 96.210938 131.101562 C 96.085938 134.941406 94.292969 140.011719 92.246094 141.808594 C 90.207031 143.601562 99.984375 143.171875 99.984375 143.171875 L 118.800781 142.988281 C 118.800781 142.988281 116.695312 139.769531 117.4375 134.882812 C 118.179688 129.992188 118.351562 125.035156 117.679688 121.910156 C 117.007812 118.789062 114.859375 114.21875 112.492188 112.722656 C 111.460938 112.070312 108.894531 111.542969 108.894531 111.542969 Z M 108.894531 111.542969 " fill-opacity="1" fill-rule="nonzero"/>
  <path fill="#e9a082" d="M 111.742188 135.925781 C 111.742188 135.925781 112.816406 142.382812 113.253906 143.375 C 113.683594 144.363281 105.121094 143.601562 103.328125 143.042969 C 101.535156 142.488281 100.917969 141.058594 100.917969 141.058594 C 100.917969 141.058594 103.328125 134.746094 102.648438 132.027344 C 101.972656 129.308594 111.742188 135.925781 111.742188 135.925781 Z M 111.742188 135.925781 " fill-opacity="1" fill-rule="nonzero"/>
  <path fill="#e9a082" d="M 109.960938 137.027344 C 106.292969 137.519531 103.183594 133.648438 101.78125 129.929688 C 100.382812 126.207031 98.921875 112.8125 107.070312 112.316406 C 115.214844 111.820312 115.878906 120.601562 115.992188 124.570312 C 116.101562 128.546875 114.9375 136.359375 109.960938 137.027344 Z M 109.960938 137.027344 " fill-opacity="1" fill-rule="nonzero"/>
  <path fill="#1f4b00" d="M 109.363281 137.1875 C 107.832031 137.1875 106.167969 136.457031 104.617188 135.089844 C 104.566406 135.042969 104.558594 134.964844 104.605469 134.914062 C 104.652344 134.863281 104.730469 134.855469 104.78125 134.902344 C 106.496094 136.40625 108.328125 137.117188 109.949219 136.894531 C 110.503906 136.824219 111.03125 136.648438 111.519531 136.386719 C 111.578125 136.355469 111.65625 136.375 111.691406 136.4375 C 111.722656 136.496094 111.695312 136.578125 111.636719 136.609375 C 111.121094 136.882812 110.570312 137.066406 109.980469 137.144531 C 109.78125 137.175781 109.570312 137.1875 109.363281 137.1875 Z M 109.363281 137.1875 " fill-opacity="1" fill-rule="nonzero"/>
  <path fill="#1f4b00" d="M 114.027344 124.828125 C 114.035156 125.039062 113.980469 125.21875 113.863281 125.371094 C 113.746094 125.519531 113.601562 125.597656 113.433594 125.605469 C 113.261719 125.609375 113.113281 125.542969 112.988281 125.398438 C 112.863281 125.253906 112.796875 125.078125 112.789062 124.867188 C 112.78125 124.660156 112.835938 124.480469 112.953125 124.328125 C 113.070312 124.175781 113.214844 124.097656 113.382812 124.09375 C 113.554688 124.089844 113.703125 124.15625 113.828125 124.300781 C 113.953125 124.445312 114.019531 124.621094 114.027344 124.828125 Z M 114.027344 124.828125 " fill-opacity="1" fill-rule="nonzero"/>
  <path fill="#1f4b00" d="M 110.6875 129.8125 C 110.621094 129.8125 110.570312 129.765625 110.5625 129.699219 C 110.554688 129.636719 110.609375 129.570312 110.671875 129.5625 L 110.855469 129.542969 C 111.003906 129.53125 111.140625 129.453125 111.21875 129.328125 C 111.304688 129.203125 111.324219 129.046875 111.285156 128.90625 L 111.019531 128.042969 C 111 127.980469 111.039062 127.90625 111.101562 127.886719 C 111.167969 127.867188 111.242188 127.90625 111.261719 127.972656 L 111.527344 128.832031 C 111.59375 129.046875 111.558594 129.277344 111.4375 129.464844 C 111.3125 129.65625 111.109375 129.773438 110.882812 129.792969 L 110.699219 129.8125 C 110.691406 129.8125 110.691406 129.8125 110.6875 129.8125 Z M 110.6875 129.8125 " fill-opacity="1" fill-rule="nonzero"/>
  <path fill="#1f4b00" d="M 108.125 123.3125 C 108.125 123.3125 106.332031 122.953125 105.21875 124.074219 Z M 108.125 123.3125 " fill-opacity="1" fill-rule="nonzero"/>
  <path fill="#1f4b00" d="M 112.144531 123.050781 C 112.144531 123.050781 113.4375 122.378906 114.902344 123.265625 Z M 112.144531 123.050781 " fill-opacity="1" fill-rule="nonzero"/>
  <path fill="#1f4b00" d="M 113.125 124.160156 C 113.125 124.160156 113.972656 123.664062 114.851562 124.246094 C 114.851562 124.246094 114.011719 124.171875 113.527344 124.421875 Z M 113.125 124.160156 " fill-opacity="1" fill-rule="nonzero"/>
  <path fill="#1f4b00" d="M 108.175781 126.023438 C 108.179688 126.230469 108.125 126.410156 108.011719 126.5625 C 107.894531 126.714844 107.75 126.792969 107.578125 126.796875 C 107.410156 126.804688 107.261719 126.734375 107.136719 126.589844 C 107.007812 126.445312 106.941406 126.269531 106.9375 126.0625 C 106.929688 125.851562 106.984375 125.671875 107.101562 125.519531 C 107.21875 125.371094 107.359375 125.292969 107.53125 125.285156 C 107.703125 125.28125 107.851562 125.351562 107.976562 125.492188 C 108.101562 125.636719 108.167969 125.8125 108.175781 126.023438 Z M 108.175781 126.023438 " fill-opacity="1" fill-rule="nonzero"/>
  <path fill="#1f4b00" d="M 107.800781 125.332031 C 107.800781 125.332031 106.917969 124.898438 106.078125 125.527344 C 106.078125 125.527344 106.914062 125.40625 107.414062 125.621094 Z M 107.800781 125.332031 " fill-opacity="1" fill-rule="nonzero"/>
  <path fill="#efefef" d="M 109.277344 131.929688 C 109.277344 131.929688 111.039062 134.691406 112.132812 131.519531 Z M 109.277344 131.929688 " fill-opacity="1" fill-rule="nonzero"/>
  <path fill="#1f4b00" d="M 102.296875 126.449219 C 102.84375 124.304688 102.492188 122.347656 105.863281 120.980469 C 110.007812 119.296875 109.644531 117.464844 109.644531 117.464844 C 109.644531 117.464844 113.058594 123.390625 117.679688 121.90625 C 117.679688 121.90625 116.0625 109.125 106.554688 111.984375 C 94.921875 115.484375 97.082031 123.90625 100.0625 126.253906 C 100.542969 126.628906 102.296875 126.449219 102.296875 126.449219 Z M 102.296875 126.449219 " fill-opacity="1" fill-rule="nonzero"/>
  <path fill="#e9a082" d="M 101.703125 126.5 C 101.703125 126.5 99.164062 125.820312 99.15625 127.953125 C 99.148438 130.085938 102.597656 131.738281 102.597656 131.738281 Z M 101.703125 126.5 " fill-opacity="1" fill-rule="nonzero"/>
  <path fill="#1f4b00" d="M 101.046875 127.746094 C 101.046875 127.746094 99.574219 128.003906 101.195312 129.648438 " fill-opacity="1" fill-rule="nonzero"/>
  <path fill="#e9a082" d="M 142.503906 162.867188 C 142.503906 162.867188 136.320312 170.664062 131.203125 174.269531 C 129.214844 175.664062 127.597656 177.277344 125.898438 177.199219 C 123.023438 169.433594 128.863281 165.4375 128.863281 165.4375 C 128.863281 165.4375 137.15625 159.949219 141.898438 157.679688 C 141.898438 157.679688 142.464844 157.503906 143.789062 158.710938 C 145.125 159.902344 142.503906 162.867188 142.503906 162.867188 Z M 142.503906 162.867188 " fill-opacity="1" fill-rule="nonzero"/>
  <path fill="#37d4aa" d="M 125.898438 177.199219 C 123.199219 177.089844 121.199219 175.636719 120.964844 174.40625 C 120.585938 172.378906 120.777344 155.253906 120.777344 155.253906 L 122.605469 145.148438 L 121.695312 140.820312 C 121.695312 140.820312 126.464844 141.609375 127.03125 144.203125 C 127.605469 146.789062 128.550781 164.738281 128.871094 165.429688 C 128.863281 165.4375 123.023438 169.4375 125.898438 177.199219 Z M 125.898438 177.199219 " fill-opacity="1" fill-rule="nonzero"/>
  <path fill="#e9a082" d="M 145.445312 155.355469 C 143.605469 155.671875 141.898438 157.675781 141.898438 157.675781 L 142.386719 163.023438 C 142.679688 162.960938 143.605469 163.140625 145.046875 163.605469 C 146.042969 163.925781 147.328125 164.015625 148.320312 163.898438 C 148.761719 163.847656 149.160156 163.753906 149.433594 163.632812 C 150.332031 163.214844 150.476562 161.609375 150.476562 161.609375 C 151.050781 161.410156 150.925781 160.066406 150.925781 160.066406 C 151.550781 159.855469 151.609375 158.402344 151.609375 158.402344 C 152.113281 158.207031 152.144531 156.75 152.144531 156.75 L 152.152344 156.753906 C 152.230469 156.769531 153.019531 156.890625 152.925781 156 C 152.828125 155.058594 149.386719 154.980469 148.761719 155.015625 C 148.144531 155.054688 147.28125 155.039062 145.445312 155.355469 Z M 145.445312 155.355469 " fill-opacity="1" fill-rule="nonzero"/>
  <path fill="#1f4b00" d="M 177.296875 121.585938 C 170.128906 115.714844 159.5625 116.769531 153.695312 123.933594 C 147.824219 131.101562 148.875 141.667969 156.042969 147.53125 C 163.207031 153.40625 173.777344 152.355469 179.644531 145.1875 C 185.515625 138.03125 184.460938 127.457031 177.296875 121.585938 Z M 178.339844 144.125 C 173.058594 150.570312 163.550781 151.515625 157.105469 146.234375 C 150.660156 140.949219 149.714844 131.445312 154.992188 125 C 160.277344 118.554688 169.78125 117.609375 176.226562 122.890625 C 182.671875 128.175781 183.617188 137.675781 178.339844 144.125 Z M 178.339844 144.125 " fill-opacity="1" fill-rule="nonzero"/>
  <g mask="url(#5b586b0de6)">
    <g transform="matrix(1, 0, 0, 1, 151, 119)">
      <g clip-path="url(#d3e6f96d6e)">
        <g clip-path="url(#db5be0deea)">
          <path fill="#efefef" d="M 27.339844 25.125 C 22.058594 31.570312 12.550781 32.515625 6.105469 27.234375 C -0.339844 21.949219 -1.285156 12.445312 3.992188 6 C 9.277344 -0.445312 18.78125 -1.390625 25.226562 3.890625 C 31.671875 9.175781 32.617188 18.675781 27.339844 25.125 Z M 27.339844 25.125 " fill-opacity="1" fill-rule="nonzero"/>
        </g>
      </g>
    </g>
  </g>
  <path fill="#1f4b00" d="M 143.546875 164.375 C 142.898438 163.839844 142.8125 162.875 143.359375 162.230469 L 157.144531 146.5625 L 158.257812 147.472656 L 145.6875 164.132812 C 145.164062 164.804688 144.199219 164.910156 143.546875 164.375 Z M 143.546875 164.375 " fill-opacity="1" fill-rule="nonzero"/>
  <path fill="#e9a082" d="M 148.085938 157.160156 C 148.085938 157.160156 146.925781 157.71875 147.335938 158.441406 C 147.335938 158.441406 146.394531 159.167969 146.789062 159.980469 C 146.789062 159.980469 146.363281 161.199219 146.820312 161.402344 C 147.277344 161.605469 147.695312 160.90625 148.292969 161.167969 C 148.894531 161.429688 148.574219 162.464844 148.574219 162.464844 L 148.527344 163.019531 L 148.933594 163.65625 C 149.375 163.605469 149.167969 163.753906 149.441406 163.632812 C 150.339844 163.214844 150.484375 161.609375 150.484375 161.609375 C 151.054688 161.410156 150.933594 160.066406 150.933594 160.066406 C 151.558594 159.855469 151.617188 158.402344 151.617188 158.402344 C 152.117188 158.207031 152.152344 156.75 152.152344 156.75 C 152.152344 156.75 151.550781 156.03125 150.535156 156 C 149.511719 155.972656 148.011719 156.296875 148.085938 157.160156 Z M 148.085938 157.160156 " fill-opacity="1" fill-rule="nonzero"/>
  <path fill="#1f4b00" d="M 151.410156 158.480469 C 151.246094 158.03125 150.878906 157.367188 150.574219 157.289062 C 150.152344 157.179688 148.652344 157.316406 148.109375 157.375 L 148.058594 156.9375 C 148.265625 156.910156 150.105469 156.714844 150.683594 156.867188 C 151.335938 157.035156 151.773438 158.207031 151.820312 158.339844 Z M 151.410156 158.480469 " fill-opacity="1" fill-rule="nonzero"/>
  <path fill="#1f4b00" d="M 150.710938 160.078125 C 150.683594 159.484375 150.507812 158.566406 150.195312 158.480469 C 149.734375 158.351562 147.992188 158.558594 147.367188 158.652344 L 147.300781 158.214844 C 147.542969 158.183594 149.675781 157.875 150.3125 158.050781 C 151.042969 158.261719 151.140625 159.757812 151.15625 160.054688 Z M 150.710938 160.078125 " fill-opacity="1" fill-rule="nonzero"/>
  <path fill="#1f4b00" d="M 150.261719 161.644531 C 150.222656 161.273438 149.988281 160.25 149.421875 160.015625 C 148.808594 159.757812 147.347656 160.058594 146.839844 160.191406 L 146.730469 159.765625 C 146.808594 159.746094 148.722656 159.25 149.589844 159.609375 C 150.515625 159.988281 150.691406 161.53125 150.703125 161.597656 Z M 150.261719 161.644531 " fill-opacity="1" fill-rule="nonzero"/>
  <path fill="#1f4b00" d="M 148.78125 162.53125 L 148.359375 162.398438 C 148.359375 162.394531 148.605469 161.546875 148.195312 161.363281 C 147.988281 161.273438 147.8125 161.34375 147.542969 161.472656 C 147.300781 161.589844 147.027344 161.726562 146.722656 161.597656 C 146.160156 161.351562 146.429688 160.332031 146.539062 159.980469 C 146.253906 159.25 146.792969 158.625 147.0625 158.371094 C 147.007812 158.207031 147.007812 158.039062 147.054688 157.875 C 147.183594 157.453125 147.636719 157.144531 147.855469 157.015625 C 147.875 156.8125 147.960938 156.625 148.117188 156.457031 C 148.597656 155.945312 149.675781 155.746094 150.527344 155.769531 C 151.636719 155.808594 152.28125 156.574219 152.308594 156.597656 L 151.96875 156.878906 C 151.960938 156.871094 151.414062 156.238281 150.507812 156.207031 C 149.757812 156.179688 148.800781 156.363281 148.429688 156.753906 C 148.324219 156.867188 148.28125 156.988281 148.285156 157.121094 L 148.300781 157.269531 L 148.164062 157.335938 C 148 157.414062 147.554688 157.6875 147.464844 157.992188 C 147.433594 158.105469 147.445312 158.203125 147.503906 158.304688 L 147.601562 158.46875 L 147.453125 158.585938 C 147.445312 158.59375 146.65625 159.210938 146.964844 159.855469 L 147.003906 159.941406 L 146.96875 160.027344 C 146.789062 160.554688 146.75 161.113281 146.886719 161.179688 C 146.996094 161.234375 147.132812 161.167969 147.335938 161.070312 C 147.601562 160.933594 147.941406 160.769531 148.351562 160.945312 C 148.992188 161.234375 148.925781 162.078125 148.78125 162.53125 Z M 148.78125 162.53125 " fill-opacity="1" fill-rule="nonzero"/>
  <path fill="#37d4aa" d="M 121.445312 167.390625 C 120.90625 161.902344 125.371094 144.972656 121.695312 140.820312 C 119.5 139.738281 112.144531 138.578125 112.132812 138.601562 C 111.507812 140.78125 111.390625 142.136719 109.765625 143.230469 C 108.234375 144.265625 105.316406 143.199219 102.304688 138.757812 L 94.71875 140.3125 C 94.71875 140.3125 92.691406 148.078125 92.632812 154.09375 C 92.582031 160.113281 93.804688 171.242188 93.746094 175.832031 C 93.597656 186.898438 92.886719 189.707031 93.382812 190.425781 C 94.417969 191.605469 103.609375 191.03125 111.652344 190.425781 C 111.976562 190.398438 112.398438 189.324219 112.71875 189.304688 C 113.167969 189.269531 113.613281 190.289062 114.054688 190.269531 C 119.289062 189.980469 123.882812 189.140625 123.976562 188.859375 C 124.222656 188.117188 121.6875 171.53125 121.445312 167.390625 Z M 121.445312 167.390625 " fill-opacity="1" fill-rule="nonzero"/>
  <path fill="#1f4b00" d="M 110.152344 150.144531 C 110.152344 150.324219 110.089844 150.472656 109.964844 150.597656 C 109.839844 150.722656 109.6875 150.785156 109.511719 150.785156 C 109.335938 150.785156 109.1875 150.722656 109.0625 150.597656 C 108.9375 150.472656 108.875 150.324219 108.875 150.144531 C 108.875 149.96875 108.9375 149.820312 109.0625 149.695312 C 109.1875 149.570312 109.335938 149.507812 109.511719 149.507812 C 109.6875 149.507812 109.839844 149.570312 109.964844 149.695312 C 110.089844 149.820312 110.152344 149.96875 110.152344 150.144531 Z M 110.152344 150.144531 " fill-opacity="1" fill-rule="nonzero"/>
  <path fill="#1f4b00" d="M 110.953125 155.863281 C 110.953125 156.039062 110.890625 156.1875 110.765625 156.3125 C 110.640625 156.4375 110.492188 156.5 110.316406 156.5 C 110.136719 156.5 109.988281 156.4375 109.863281 156.3125 C 109.738281 156.1875 109.675781 156.039062 109.675781 155.863281 C 109.675781 155.6875 109.738281 155.535156 109.863281 155.410156 C 109.988281 155.285156 110.136719 155.222656 110.316406 155.222656 C 110.492188 155.222656 110.640625 155.285156 110.765625 155.410156 C 110.890625 155.535156 110.953125 155.6875 110.953125 155.863281 Z M 110.953125 155.863281 " fill-opacity="1" fill-rule="nonzero"/>
  <path fill="#1f4b00" d="M 111.21875 161.1875 C 111.21875 161.363281 111.160156 161.515625 111.035156 161.636719 C 110.910156 161.761719 110.757812 161.824219 110.582031 161.824219 C 110.40625 161.824219 110.253906 161.761719 110.128906 161.636719 C 110.003906 161.515625 109.941406 161.363281 109.941406 161.1875 C 109.941406 161.011719 110.003906 160.859375 110.128906 160.734375 C 110.253906 160.609375 110.40625 160.546875 110.582031 160.546875 C 110.757812 160.546875 110.910156 160.609375 111.035156 160.734375 C 111.160156 160.859375 111.21875 161.011719 111.21875 161.1875 Z M 111.21875 161.1875 " fill-opacity="1" fill-rule="nonzero"/>
  <path fill="#1f4b00" d="M 111.21875 167.671875 C 111.21875 167.847656 111.160156 168 111.035156 168.125 C 110.910156 168.25 110.757812 168.3125 110.582031 168.3125 C 110.40625 168.3125 110.253906 168.25 110.128906 168.125 C 110.003906 168 109.941406 167.847656 109.941406 167.671875 C 109.941406 167.496094 110.003906 167.34375 110.128906 167.21875 C 110.253906 167.09375 110.40625 167.035156 110.582031 167.035156 C 110.757812 167.035156 110.910156 167.09375 111.035156 167.21875 C 111.160156 167.34375 111.21875 167.496094 111.21875 167.671875 Z M 111.21875 167.671875 " fill-opacity="1" fill-rule="nonzero"/>
  <path fill="#1f4b00" d="M 111.167969 173.871094 C 111.167969 174.046875 111.105469 174.195312 110.980469 174.320312 C 110.855469 174.445312 110.707031 174.507812 110.53125 174.507812 C 110.351562 174.507812 110.203125 174.445312 110.078125 174.320312 C 109.953125 174.195312 109.890625 174.046875 109.890625 173.871094 C 109.890625 173.695312 109.953125 173.542969 110.078125 173.417969 C 110.203125 173.292969 110.351562 173.230469 110.53125 173.230469 C 110.707031 173.230469 110.855469 173.292969 110.980469 173.417969 C 111.105469 173.542969 111.167969 173.695312 111.167969 173.871094 Z M 111.167969 173.871094 " fill-opacity="1" fill-rule="nonzero"/>
  <path fill="#1f4b00" d="M 111.199219 180.492188 C 111.199219 180.667969 111.140625 180.820312 111.015625 180.945312 C 110.890625 181.070312 110.738281 181.132812 110.5625 181.132812 C 110.386719 181.132812 110.234375 181.070312 110.109375 180.945312 C 109.984375 180.820312 109.921875 180.667969 109.921875 180.492188 C 109.921875 180.316406 109.984375 180.164062 110.109375 180.039062 C 110.234375 179.914062 110.386719 179.851562 110.5625 179.851562 C 110.738281 179.851562 110.890625 179.914062 111.015625 180.039062 C 111.140625 180.164062 111.199219 180.316406 111.199219 180.492188 Z M 111.199219 180.492188 " fill-opacity="1" fill-rule="nonzero"/>
  <path fill="#1f4b00" d="M 111.476562 186.109375 C 111.476562 186.285156 111.414062 186.4375 111.289062 186.5625 C 111.164062 186.6875 111.011719 186.75 110.835938 186.75 C 110.660156 186.75 110.507812 186.6875 110.382812 186.5625 C 110.257812 186.4375 110.199219 186.285156 110.199219 186.109375 C 110.199219 185.933594 110.257812 185.785156 110.382812 185.660156 C 110.507812 185.535156 110.660156 185.472656 110.835938 185.472656 C 111.011719 185.472656 111.164062 185.535156 111.289062 185.660156 C 111.414062 185.785156 111.476562 185.933594 111.476562 186.109375 Z M 111.476562 186.109375 " fill-opacity="1" fill-rule="nonzero"/>
  <path fill="#1f4b00" d="M 122.496094 175.976562 C 122.4375 175.976562 122.378906 175.929688 122.371094 175.863281 C 121.070312 164.753906 122.132812 156.964844 122.828125 151.816406 C 122.945312 150.953125 123.058594 150.140625 123.140625 149.414062 C 123.148438 149.351562 123.214844 149.296875 123.277344 149.304688 C 123.34375 149.3125 123.394531 149.375 123.390625 149.441406 C 123.304688 150.164062 123.195312 150.980469 123.078125 151.839844 C 122.378906 156.984375 121.324219 164.753906 122.621094 175.832031 C 122.625 175.898438 122.582031 175.960938 122.507812 175.96875 C 122.503906 175.976562 122.503906 175.976562 122.496094 175.976562 Z M 122.496094 175.976562 " fill-opacity="1" fill-rule="nonzero"/>
  <path fill="#1f4b00" d="M 102.214844 137.46875 C 102.214844 137.46875 104.957031 141.707031 109.765625 143.238281 C 109.765625 143.238281 107.484375 145.835938 107.238281 146.054688 C 106.992188 146.269531 100.011719 139.289062 100.011719 139.289062 Z M 102.214844 137.46875 " fill-opacity="1" fill-rule="nonzero"/>
  <path fill="#1f4b00" d="M 107.25 146.171875 C 107.035156 146.171875 106.078125 145.53125 99.914062 139.371094 C 99.867188 139.328125 99.867188 139.25 99.914062 139.195312 C 99.957031 139.152344 100.035156 139.152344 100.089844 139.195312 C 102.570312 141.679688 106.621094 145.621094 107.191406 145.914062 C 107.519531 145.597656 109.070312 143.835938 109.667969 143.152344 C 109.714844 143.101562 109.792969 143.09375 109.84375 143.140625 C 109.898438 143.183594 109.902344 143.261719 109.859375 143.316406 C 109.765625 143.417969 107.570312 145.921875 107.316406 146.144531 C 107.304688 146.15625 107.285156 146.171875 107.25 146.171875 Z M 107.25 146.171875 " fill-opacity="1" fill-rule="nonzero"/>
  <path fill="#1f4b00" d="M 109.761719 143.238281 L 112.003906 137.75 L 114.5625 139.066406 C 114.5625 139.066406 113.460938 143.375 112.570312 145.480469 Z M 109.761719 143.238281 " fill-opacity="1" fill-rule="nonzero"/>
  <path fill="#1f4b00" d="M 112.578125 145.601562 C 112.550781 145.601562 112.523438 145.597656 112.5 145.578125 L 109.683594 143.335938 C 109.628906 143.289062 109.617188 143.21875 109.664062 143.160156 C 109.707031 143.105469 109.785156 143.09375 109.839844 143.140625 L 112.523438 145.285156 C 113.390625 143.164062 114.441406 139.085938 114.445312 139.039062 C 114.464844 138.976562 114.53125 138.9375 114.597656 138.949219 C 114.660156 138.96875 114.699219 139.035156 114.6875 139.097656 C 114.675781 139.144531 113.574219 143.4375 112.6875 145.523438 C 112.675781 145.558594 112.640625 145.589844 112.601562 145.597656 C 112.597656 145.601562 112.589844 145.601562 112.578125 145.601562 Z M 112.578125 145.601562 " fill-opacity="1" fill-rule="nonzero"/>
  <path fill="#1f4b00" d="M 112.71875 189.433594 C 112.65625 189.433594 112.601562 189.382812 112.597656 189.316406 C 112.589844 189.230469 112.164062 180.863281 111.957031 175.480469 C 111.832031 172.3125 111.851562 168.0625 111.871094 164.308594 C 111.886719 161.648438 111.898438 159.140625 111.851562 157.523438 C 111.75 153.730469 109.78125 143.824219 109.761719 143.71875 C 109.746094 143.65625 109.792969 143.589844 109.859375 143.578125 C 109.929688 143.5625 109.988281 143.609375 110 143.675781 C 110.019531 143.773438 111.996094 153.703125 112.101562 157.515625 C 112.144531 159.132812 112.132812 161.648438 112.121094 164.308594 C 112.101562 168.054688 112.082031 172.304688 112.203125 175.46875 C 112.414062 180.851562 112.84375 189.21875 112.84375 189.304688 C 112.84375 189.371094 112.792969 189.429688 112.71875 189.433594 C 112.726562 189.433594 112.71875 189.433594 112.71875 189.433594 Z M 112.71875 189.433594 " fill-opacity="1" fill-rule="nonzero"/>
  <path fill="#e9a082" d="M 92.679688 171.394531 L 105.890625 176.40625 L 105.21875 182.199219 C 105.21875 182.199219 93.25 180.054688 88.597656 178.910156 C 83.949219 177.761719 83.378906 177 83.378906 177 L 82.550781 172.222656 L 86.6875 167.699219 C 86.6875 167.699219 89.613281 167.953125 89.679688 168.207031 C 89.746094 168.460938 92.679688 171.394531 92.679688 171.394531 Z M 92.679688 171.394531 " fill-opacity="1" fill-rule="nonzero"/>
  <path fill="#e9a082" d="M 107.824219 185.613281 C 107.675781 184.925781 107.277344 184.3125 105.296875 182.84375 C 104.101562 181.964844 102.820312 179.925781 102.460938 179.371094 L 105.8125 176.328125 C 106.660156 176.816406 108.46875 177.179688 109.664062 177.613281 C 111.160156 178.144531 113.105469 178.4375 113.671875 179.578125 C 114.640625 181.523438 115.523438 184.109375 114.757812 184.433594 C 113.996094 184.761719 112.8125 182.519531 112.8125 182.519531 C 112.8125 182.519531 113.214844 183.882812 112.519531 184.363281 C 111.820312 184.839844 110.847656 184.265625 110.847656 184.265625 C 110.660156 185.296875 109.34375 185.113281 109.34375 185.113281 C 109.140625 186.019531 107.941406 186.167969 107.824219 185.613281 Z M 107.824219 185.613281 " fill-opacity="1" fill-rule="nonzero"/>
  <path fill="#1f4b00" d="M 109.34375 185.210938 C 109.296875 185.210938 109.253906 185.171875 109.253906 185.125 C 109.253906 185.113281 109.136719 183.992188 108.25 183 C 108.214844 182.960938 108.214844 182.902344 108.253906 182.871094 C 108.292969 182.839844 108.351562 182.839844 108.386719 182.878906 C 109.3125 183.921875 109.429688 185.0625 109.433594 185.105469 C 109.441406 185.160156 109.402344 185.203125 109.351562 185.210938 C 109.351562 185.210938 109.351562 185.210938 109.34375 185.210938 Z M 109.34375 185.210938 " fill-opacity="1" fill-rule="nonzero"/>
  <path fill="#1f4b00" d="M 110.855469 184.363281 C 110.804688 184.363281 110.765625 184.324219 110.765625 184.277344 C 110.765625 184.265625 110.660156 182.800781 109.910156 181.769531 C 109.878906 181.730469 109.890625 181.671875 109.929688 181.640625 C 109.96875 181.605469 110.027344 181.621094 110.058594 181.660156 C 110.84375 182.734375 110.945312 184.207031 110.945312 184.265625 C 110.945312 184.316406 110.90625 184.355469 110.855469 184.363281 Z M 110.855469 184.363281 " fill-opacity="1" fill-rule="nonzero"/>
  <path fill="#1f4b00" d="M 112.8125 182.625 C 112.773438 182.625 112.734375 182.597656 112.71875 182.558594 C 112.714844 182.546875 112.359375 181.320312 111.417969 180.394531 C 111.378906 180.355469 111.378906 180.296875 111.417969 180.265625 C 111.449219 180.226562 111.515625 180.226562 111.546875 180.265625 C 112.53125 181.230469 112.882812 182.460938 112.902344 182.511719 C 112.914062 182.566406 112.890625 182.617188 112.835938 182.628906 C 112.832031 182.617188 112.824219 182.625 112.8125 182.625 Z M 112.8125 182.625 " fill-opacity="1" fill-rule="nonzero"/>
  <path fill="#37d4aa" d="M 94.710938 140.316406 C 94.710938 140.316406 87.960938 140.957031 86.433594 148.59375 C 84.910156 156.234375 79.558594 173.433594 83.378906 177 C 83.378906 177 83.566406 167.699219 92.679688 171.394531 L 94.523438 159.355469 L 95.285156 143.757812 Z M 94.710938 140.316406 " fill-opacity="1" fill-rule="nonzero"/>
  <path fill="#1f4b00" d="M 92.027344 170.890625 C 92 170.890625 91.972656 170.886719 91.949219 170.867188 C 91.929688 170.851562 89.941406 169.261719 87.464844 168.890625 C 87.398438 168.878906 87.351562 168.820312 87.359375 168.746094 C 87.371094 168.683594 87.429688 168.628906 87.503906 168.644531 C 90.050781 169.027344 92.085938 170.65625 92.105469 170.671875 C 92.15625 170.714844 92.164062 170.792969 92.125 170.847656 C 92.097656 170.878906 92.066406 170.890625 92.027344 170.890625 Z M 92.027344 170.890625 " fill-opacity="1" fill-rule="nonzero"/>
  <path fill="#1f4b00" d="M 86.148438 170.050781 C 86.101562 170.050781 86.0625 170.03125 86.042969 169.992188 C 86.011719 169.933594 86.03125 169.855469 86.089844 169.824219 C 87.554688 168.976562 89.523438 169.25 89.609375 169.253906 C 89.671875 169.261719 89.726562 169.328125 89.710938 169.394531 C 89.707031 169.457031 89.640625 169.511719 89.570312 169.496094 C 89.550781 169.496094 87.601562 169.222656 86.210938 170.03125 C 86.1875 170.050781 86.167969 170.050781 86.148438 170.050781 Z M 86.148438 170.050781 " fill-opacity="1" fill-rule="nonzero"/>
  <path fill="#1f4b00" d="M 93.308594 167.105469 C 93.246094 167.105469 93.1875 167.054688 93.1875 166.980469 L 92.9375 154.3125 C 92.9375 154.246094 92.992188 154.1875 93.0625 154.1875 C 93.128906 154.195312 93.1875 154.238281 93.1875 154.3125 L 93.433594 166.980469 C 93.433594 167.046875 93.382812 167.105469 93.308594 167.105469 Z M 93.308594 167.105469 " fill-opacity="1" fill-rule="nonzero"/>
  <path fill="#efefef" d="M 140.152344 88.109375 C 140.152344 88.964844 140.070312 89.8125 139.902344 90.648438 C 139.734375 91.488281 139.488281 92.300781 139.160156 93.09375 C 138.835938 93.882812 138.433594 94.632812 137.960938 95.34375 C 137.484375 96.050781 136.945312 96.710938 136.339844 97.3125 C 135.734375 97.917969 135.078125 98.457031 134.367188 98.933594 C 133.65625 99.40625 132.90625 99.808594 132.117188 100.136719 C 131.328125 100.464844 130.515625 100.710938 129.675781 100.875 C 128.835938 101.042969 127.992188 101.125 127.136719 101.125 C 126.28125 101.125 125.4375 101.042969 124.597656 100.875 C 123.757812 100.710938 122.945312 100.464844 122.15625 100.136719 C 121.367188 99.808594 120.617188 99.40625 119.90625 98.933594 C 119.195312 98.457031 118.539062 97.917969 117.933594 97.3125 C 117.328125 96.710938 116.789062 96.050781 116.316406 95.34375 C 115.839844 94.632812 115.4375 93.882812 115.113281 93.09375 C 114.785156 92.300781 114.539062 91.488281 114.371094 90.648438 C 114.203125 89.8125 114.121094 88.964844 114.121094 88.109375 C 114.121094 87.257812 114.203125 86.410156 114.371094 85.570312 C 114.539062 84.734375 114.785156 83.917969 115.113281 83.128906 C 115.4375 82.339844 115.839844 81.589844 116.316406 80.878906 C 116.789062 80.167969 117.328125 79.511719 117.933594 78.90625 C 118.539062 78.304688 119.195312 77.761719 119.90625 77.289062 C 120.617188 76.8125 121.367188 76.414062 122.15625 76.085938 C 122.945312 75.757812 123.757812 75.511719 124.597656 75.34375 C 125.4375 75.179688 126.28125 75.09375 127.136719 75.09375 C 127.992188 75.09375 128.835938 75.179688 129.675781 75.34375 C 130.515625 75.511719 131.328125 75.757812 132.117188 76.085938 C 132.90625 76.414062 133.65625 76.8125 134.367188 77.289062 C 135.078125 77.761719 135.734375 78.304688 136.339844 78.90625 C 136.945312 79.511719 137.484375 80.167969 137.960938 80.878906 C 138.433594 81.589844 138.835938 82.339844 139.160156 83.128906 C 139.488281 83.917969 139.734375 84.734375 139.902344 85.570312 C 140.070312 86.410156 140.152344 87.257812 140.152344 88.109375 Z M 140.152344 88.109375 " fill-opacity="1" fill-rule="nonzero"/>
  <g clip-path="url(#200955d069)">
    <path fill="#efefef" d="M 127.136719 101.609375 C 119.695312 101.609375 113.640625 95.554688 113.640625 88.109375 C 113.640625 80.667969 119.695312 74.613281 127.136719 74.613281 C 134.578125 74.613281 140.636719 80.667969 140.636719 88.109375 C 140.636719 95.554688 134.578125 101.609375 127.136719 101.609375 Z M 127.136719 75.578125 C 120.222656 75.578125 114.601562 81.203125 114.601562 88.117188 C 114.601562 95.03125 120.226562 100.65625 127.136719 100.65625 C 134.050781 100.65625 139.671875 95.03125 139.671875 88.117188 C 139.671875 81.203125 134.046875 75.578125 127.136719 75.578125 Z M 127.136719 75.578125 " fill-opacity="1" fill-rule="nonzero"/>
  </g>
  <path fill="#37d4aa" d="M 120.359375 87.597656 L 123.792969 87.597656 L 123.792969 93.109375 L 120.359375 93.109375 Z M 120.359375 87.597656 " fill-opacity="1" fill-rule="nonzero"/>
  <path fill="#e9a082" d="M 125.417969 85.425781 L 128.851562 85.425781 L 128.851562 93.109375 L 125.417969 93.109375 Z M 125.417969 85.425781 " fill-opacity="1" fill-rule="nonzero"/>
  <path fill="#37d4aa" d="M 130.480469 83.117188 L 133.914062 83.117188 L 133.914062 93.109375 L 130.480469 93.109375 Z M 130.480469 83.117188 " fill-opacity="1" fill-rule="nonzero"/>
</svg>
