<svg width="41" height="40" viewBox="0 0 41 40" fill="none" xmlns="http://www.w3.org/2000/svg">
<path d="M11.7668 36.6667H29.2335C33.8335 36.6667 35.6668 33.85 35.8835 30.4167L36.7501 16.65C36.9835 13.05 34.1168 10 30.5001 10C29.4835 10 28.5501 9.41666 28.0835 8.51666L26.8835 6.1C26.1168 4.58333 24.1168 3.33333 22.4168 3.33333H18.6001C16.8835 3.33333 14.8835 4.58333 14.1168 6.1L12.9168 8.51666C12.4501 9.41666 11.5168 10 10.5001 10C6.88345 10 4.01678 13.05 4.25012 16.65L5.11678 30.4167C5.31678 33.85 7.16678 36.6667 11.7668 36.6667Z" stroke="#35D277" stroke-width="2" stroke-linecap="round" stroke-linejoin="round"/>
<path d="M18 13.3333H23" stroke="#35D277" stroke-width="2" stroke-linecap="round" stroke-linejoin="round"/>
<path d="M20.4999 30C23.4833 30 25.9166 27.5667 25.9166 24.5833C25.9166 21.6 23.4833 19.1667 20.4999 19.1667C17.5166 19.1667 15.0833 21.6 15.0833 24.5833C15.0833 27.5667 17.5166 30 20.4999 30Z" stroke="#35D277" stroke-width="2" stroke-linecap="round" stroke-linejoin="round"/>
</svg>
