<svg width="25" height="24" viewBox="0 0 25 24" fill="none" xmlns="http://www.w3.org/2000/svg">
<path d="M21.4032 5.23C19.7932 5.07 18.1832 4.95 16.5632 4.86V4.85L16.3432 3.55C16.1932 2.63 15.9732 1.25 13.6332 1.25H11.0132C8.68317 1.25 8.46316 2.57 8.30316 3.54L8.09317 4.82C7.16317 4.88 6.23317 4.94 5.30317 5.03L3.26317 5.23C2.84317 5.27 2.54317 5.64 2.58317 6.05C2.62317 6.46 2.98317 6.76 3.40317 6.72L5.44317 6.52C10.6832 6 15.9632 6.2 21.2632 6.73C21.2932 6.73 21.3132 6.73 21.3432 6.73C21.7232 6.73 22.0532 6.44 22.0932 6.05C22.1232 5.64 21.8232 5.27 21.4032 5.23Z" fill="#C47FFF"/>
<path opacity="0.3991" d="M19.5632 8.14C19.3232 7.89 18.9932 7.75 18.6532 7.75H6.01325C5.67325 7.75 5.33325 7.89 5.10325 8.14C4.87325 8.39 4.74325 8.73 4.76325 9.08L5.38325 19.34C5.49325 20.86 5.63325 22.76 9.12325 22.76H15.5432C19.0332 22.76 19.1732 20.87 19.2832 19.34L19.9032 9.09C19.9232 8.73 19.7932 8.39 19.5632 8.14Z" fill="#C47FFF"/>
<path fill-rule="evenodd" clip-rule="evenodd" d="M9.91333 17C9.91333 16.5858 10.2491 16.25 10.6633 16.25H13.9933C14.4075 16.25 14.7433 16.5858 14.7433 17C14.7433 17.4142 14.4075 17.75 13.9933 17.75H10.6633C10.2491 17.75 9.91333 17.4142 9.91333 17Z" fill="#C47FFF"/>
<path fill-rule="evenodd" clip-rule="evenodd" d="M9.08325 13C9.08325 12.5858 9.41904 12.25 9.83325 12.25H14.8333C15.2475 12.25 15.5833 12.5858 15.5833 13C15.5833 13.4142 15.2475 13.75 14.8333 13.75H9.83325C9.41904 13.75 9.08325 13.4142 9.08325 13Z" fill="#C47FFF"/>
</svg>
