<svg width="25" height="24" viewBox="0 0 25 24" fill="none" xmlns="http://www.w3.org/2000/svg">
<path d="M12.5 22.75C11.87 22.75 11.28 22.51 10.84 22.06L9.32001 20.54C9.20001 20.42 8.88 20.29 8.72 20.29H6.56C5.26 20.29 4.20999 19.2399 4.20999 17.9399V15.78C4.20999 15.62 4.07999 15.3 3.95999 15.18L2.44 13.66C2 13.22 1.75 12.63 1.75 12C1.75 11.37 1.99 10.7799 2.44 10.3399L3.95999 8.81991C4.07999 8.69991 4.20999 8.37994 4.20999 8.21994V6.06002C4.20999 4.76002 5.26 3.70993 6.56 3.70993H8.72C8.88 3.70993 9.20001 3.57993 9.32001 3.45993L10.84 1.93991C11.72 1.05991 13.28 1.05991 14.16 1.93991L15.68 3.45993C15.8 3.57993 16.12 3.70993 16.28 3.70993H18.44C19.74 3.70993 20.79 4.76002 20.79 6.06002V8.21994C20.79 8.37994 20.92 8.69991 21.04 8.81991L22.56 10.3399C23 10.7799 23.25 11.37 23.25 12C23.25 12.63 23.01 13.22 22.56 13.66L21.04 15.18C20.92 15.3 20.79 15.62 20.79 15.78V17.9399C20.79 19.2399 19.74 20.29 18.44 20.29H16.28C16.12 20.29 15.8 20.42 15.68 20.54L14.16 22.06C13.72 22.51 13.13 22.75 12.5 22.75ZM5.01999 14.12C5.41999 14.52 5.70999 15.22 5.70999 15.78V17.9399C5.70999 18.4099 6.09 18.79 6.56 18.79H8.72C9.28 18.79 9.98001 19.0799 10.38 19.4799L11.9 21C12.22 21.32 12.78 21.32 13.1 21L14.62 19.4799C15.02 19.0799 15.72 18.79 16.28 18.79H18.44C18.91 18.79 19.29 18.4099 19.29 17.9399V15.78C19.29 15.22 19.58 14.52 19.98 14.12L21.5 12.5999C21.66 12.4399 21.75 12.23 21.75 12C21.75 11.77 21.66 11.56 21.5 11.4L19.98 9.87997C19.58 9.47997 19.29 8.77994 19.29 8.21994V6.06002C19.29 5.59002 18.91 5.20993 18.44 5.20993H16.28C15.72 5.20993 15.02 4.91999 14.62 4.51999L13.1 2.99997C12.78 2.67997 12.22 2.67997 11.9 2.99997L10.38 4.51999C9.98001 4.91999 9.28 5.20993 8.72 5.20993H6.56C6.09 5.20993 5.70999 5.59002 5.70999 6.06002V8.21994C5.70999 8.77994 5.41999 9.47997 5.01999 9.87997L3.5 11.4C3.34 11.56 3.25 11.77 3.25 12C3.25 12.23 3.34 12.4399 3.5 12.5999L5.01999 14.12Z" fill="#9DB2CE"/>
<path d="M15.5002 16C14.9402 16 14.4902 15.55 14.4902 15C14.4902 14.45 14.9402 14 15.4902 14C16.0402 14 16.4902 14.45 16.4902 15C16.4902 15.55 16.0502 16 15.5002 16Z" fill="#9DB2CE"/>
<path d="M9.51001 10C8.95001 10 8.5 9.55 8.5 9C8.5 8.45 8.95 8 9.5 8C10.05 8 10.5 8.45 10.5 9C10.5 9.55 10.06 10 9.51001 10Z" fill="#9DB2CE"/>
<path d="M9.49994 15.75C9.30994 15.75 9.11994 15.68 8.96994 15.53C8.67994 15.24 8.67994 14.7599 8.96994 14.4699L14.9699 8.46994C15.2599 8.17994 15.7399 8.17994 16.0299 8.46994C16.3199 8.75994 16.3199 9.24 16.0299 9.53L10.0299 15.53C9.87994 15.68 9.68994 15.75 9.49994 15.75Z" fill="#9DB2CE"/>
</svg>
