<svg version="1.1" id="Layer_1" xmlns="http://www.w3.org/2000/svg" xmlns:xlink="http://www.w3.org/1999/xlink" x="0px" y="0px"
	 width="100%" viewBox="0 0 512 512" enable-background="new 0 0 512 512" xml:space="preserve">
<path fill="#FFFFFF" opacity="1.000000" stroke="none" 
	d="
M281.000000,513.000000 
	C187.712814,513.000000 94.425629,513.000000 1.069219,513.000000 
	C1.069219,342.333344 1.069219,171.666672 1.069219,1.000000 
	C31.759676,1.000000 62.411179,1.000000 93.440392,1.345618 
	C88.645645,4.331341 84.971603,7.893492 84.973396,14.297648 
	C85.009056,141.779007 84.998611,269.260376 85.004021,396.741730 
	C85.004295,403.214569 91.530350,409.962189 98.112617,409.971252 
	C139.439819,410.028076 180.767227,410.023865 222.094177,409.906128 
	C223.632584,409.901733 225.415329,408.797760 226.642960,407.708771 
	C228.323608,406.218079 229.441162,404.110748 231.040756,402.507935 
	C260.587463,372.902161 289.997955,343.157257 319.819305,313.830231 
	C334.246124,299.642487 352.371887,293.164734 372.379578,292.094269 
	C378.498749,291.766876 384.677887,292.560852 390.678101,292.834381 
	C390.678101,239.277542 390.678101,186.212662 390.678101,133.000000 
	C352.874542,133.000000 315.392700,133.000092 277.910858,132.999924 
	C268.457855,132.999878 263.001953,127.511703 263.001221,117.982895 
	C262.998322,78.988594 263.000000,39.994297 263.000000,1.000000 
	C272.020905,1.000000 281.041779,1.000000 290.531342,1.468657 
	C291.000000,36.178257 291.000000,70.419197 291.000000,104.812073 
	C324.502014,104.812073 357.552246,104.812073 390.797302,104.812073 
	C391.319336,99.547287 391.441559,94.462715 387.804199,90.376289 
	C380.470001,82.136536 373.017395,73.997047 365.441254,65.979057 
	C356.338837,56.345695 347.033752,46.904182 337.861145,37.336712 
	C332.144073,31.373535 326.613098,25.229017 320.810059,19.352039 
	C314.656311,13.119896 308.279419,7.108053 302.000000,1.000000 
	C372.300354,1.000000 442.600708,1.000000 512.950562,1.000000 
	C512.950562,171.553635 512.950562,342.107300 512.950562,513.000000 
	C443.312805,513.000000 373.625061,513.000000 303.593353,512.624023 
	C307.073456,511.066772 311.347229,510.604706 314.627350,508.553589 
	C321.324524,504.365723 327.960876,499.839447 333.763855,494.516693 
	C343.652527,485.446381 352.879150,475.654358 362.635406,465.914490 
	C337.464600,440.806396 312.708282,416.118683 287.964722,391.418152 
	C285.676941,389.134430 283.795319,389.638000 281.673828,391.799286 
	C274.557495,399.049072 267.301514,406.161530 260.145294,413.372589 
	C256.054077,417.495209 251.567047,421.342285 248.106445,425.950439 
	C239.430588,437.503235 236.265335,450.529449 237.880157,465.072693 
	C239.912247,483.373627 248.568848,497.037567 264.490509,505.950897 
	C269.682068,508.857239 275.479614,510.681061 281.000000,513.000000 
M313.000275,376.500275 
	C334.900085,398.397797 356.868622,420.227509 378.623871,442.267761 
	C381.801270,445.486725 383.592285,445.320282 386.481415,442.133331 
	C391.172241,436.958923 396.385468,432.262573 401.235138,427.226624 
	C407.540222,420.679291 414.536011,414.585693 419.741150,407.238800 
	C428.097168,395.444458 431.460144,382.140320 429.187836,367.314545 
	C427.509796,356.365967 423.527954,346.858124 416.218506,338.796204 
	C404.729980,326.124939 390.344330,320.443451 373.155151,320.886200 
	C360.428894,321.214050 349.211670,325.310669 340.068573,333.664429 
	C327.926514,344.758209 316.622681,356.769470 304.847321,368.497467 
	C307.507599,371.105499 310.004089,373.552948 313.000275,376.500275 
z"/>
<path fill="#000000" opacity="1.000000" stroke="none" 
	d="
M262.531342,1.000000 
	C263.000000,39.994297 262.998322,78.988594 263.001221,117.982895 
	C263.001953,127.511703 268.457855,132.999878 277.910858,132.999924 
	C315.392700,133.000092 352.874542,133.000000 390.678101,133.000000 
	C390.678101,186.212662 390.678101,239.277542 390.678101,292.834381 
	C384.677887,292.560852 378.498749,291.766876 372.379578,292.094269 
	C352.371887,293.164734 334.246124,299.642487 319.819305,313.830231 
	C289.997955,343.157257 260.587463,372.902161 231.040756,402.507935 
	C229.441162,404.110748 228.323608,406.218079 226.642960,407.708771 
	C225.415329,408.797760 223.632584,409.901733 222.094177,409.906128 
	C180.767227,410.023865 139.439819,410.028076 98.112617,409.971252 
	C91.530350,409.962189 85.004295,403.214569 85.004021,396.741730 
	C84.998611,269.260376 85.009056,141.779007 84.973396,14.297648 
	C84.971603,7.893492 88.645645,4.331341 93.909050,1.345618 
	C150.020889,1.000000 206.041794,1.000000 262.531342,1.000000 
M224.500000,262.000000 
	C205.682312,262.000000 186.864365,261.948975 168.047165,262.044952 
	C164.477966,262.063141 160.917526,262.759369 157.342941,262.976654 
	C149.861984,263.431305 144.094955,269.546906 144.962158,278.544281 
	C145.632111,285.495117 152.035095,290.998047 159.905319,290.998718 
	C193.377441,291.001709 226.849564,291.000000 260.321686,291.000000 
	C278.972809,291.000000 297.624023,291.023895 316.275055,290.987305 
	C322.971466,290.974152 327.557007,287.126465 330.063263,280.345978 
	C332.015015,275.065735 329.276642,267.841309 325.160095,265.918396 
	C320.901917,263.929291 316.043213,262.221985 311.426483,262.168152 
	C282.787537,261.834045 254.142807,262.000000 224.500000,262.000000 
M202.052399,200.987946 
	C208.899521,201.493530 215.746643,201.999100 223.000031,202.534683 
	C223.000031,206.841202 223.011749,211.297470 222.997131,215.753616 
	C222.977737,221.662125 225.449219,226.950912 230.120453,229.797318 
	C240.374130,236.045334 251.953934,228.751953 251.997208,216.602615 
	C252.014236,211.825836 252.000000,207.048950 252.000000,202.000000 
	C257.301971,202.000000 262.104889,202.001999 266.907806,201.999542 
	C275.503967,201.995163 280.962433,196.838364 281.000000,188.689514 
	C281.038269,180.378784 274.925201,174.037537 266.816254,174.003769 
	C261.896332,173.983292 256.976227,174.000000 252.000000,174.000000 
	C252.000000,170.130951 252.131790,166.961273 251.963425,163.807617 
	C251.790497,160.568268 251.754822,157.224243 250.892593,154.140320 
	C249.333450,148.563904 242.108932,143.572174 237.048935,144.023026 
	C230.503128,144.606277 224.886444,149.743896 224.044357,156.364899 
	C223.306961,162.162903 222.981003,168.013260 222.459381,174.000000 
	C217.559357,174.000000 212.701965,174.387115 207.932617,173.904266 
	C201.644531,173.267670 193.437500,181.721207 193.845108,188.068924 
	C194.216675,193.855515 197.711548,197.196426 202.052399,200.987946 
M263.058411,323.001282 
	C261.165314,322.667511 259.272736,322.046204 257.379028,322.042786 
	C224.584488,321.983398 191.789810,321.998505 158.995148,322.001038 
	C150.680847,322.001678 145.012375,327.429443 145.000000,335.386261 
	C144.987137,343.657074 151.127457,349.990753 159.241699,349.994263 
	C191.703415,350.008270 224.165237,349.951202 256.626740,350.033875 
	C264.860382,350.054871 269.117157,345.165924 270.895630,339.949341 
	C273.025665,333.701385 269.872131,326.894562 263.058411,323.001282 
z"/>
<path fill="#000000" opacity="1.000000" stroke="none" 
	d="
M281.468567,513.000000 
	C275.479614,510.681061 269.682068,508.857239 264.490509,505.950897 
	C248.568848,497.037567 239.912247,483.373627 237.880157,465.072693 
	C236.265335,450.529449 239.430588,437.503235 248.106445,425.950439 
	C251.567047,421.342285 256.054077,417.495209 260.145294,413.372589 
	C267.301514,406.161530 274.557495,399.049072 281.673828,391.799286 
	C283.795319,389.638000 285.676941,389.134430 287.964722,391.418152 
	C312.708282,416.118683 337.464600,440.806396 362.635406,465.914490 
	C352.879150,475.654358 343.652527,485.446381 333.763855,494.516693 
	C327.960876,499.839447 321.324524,504.365723 314.627350,508.553589 
	C311.347229,510.604706 307.073456,511.066772 303.124695,512.624023 
	C295.979034,513.000000 288.958099,513.000000 281.468567,513.000000 
z"/>
<path fill="#000000" opacity="1.000000" stroke="none" 
	d="
M301.541931,1.000000 
	C308.279419,7.108053 314.656311,13.119896 320.810059,19.352039 
	C326.613098,25.229017 332.144073,31.373535 337.861145,37.336712 
	C347.033752,46.904182 356.338837,56.345695 365.441254,65.979057 
	C373.017395,73.997047 380.470001,82.136536 387.804199,90.376289 
	C391.441559,94.462715 391.319336,99.547287 390.797302,104.812073 
	C357.552246,104.812073 324.502014,104.812073 291.000000,104.812073 
	C291.000000,70.419197 291.000000,36.178257 291.000000,1.468657 
	C294.361298,1.000000 297.722565,1.000000 301.541931,1.000000 
z"/>
<path fill="#000000" opacity="1.000000" stroke="none" 
	d="
M312.750427,376.250336 
	C310.004089,373.552948 307.507599,371.105499 304.847321,368.497467 
	C316.622681,356.769470 327.926514,344.758209 340.068573,333.664429 
	C349.211670,325.310669 360.428894,321.214050 373.155151,320.886200 
	C390.344330,320.443451 404.729980,326.124939 416.218506,338.796204 
	C423.527954,346.858124 427.509796,356.365967 429.187836,367.314545 
	C431.460144,382.140320 428.097168,395.444458 419.741150,407.238800 
	C414.536011,414.585693 407.540222,420.679291 401.235138,427.226624 
	C396.385468,432.262573 391.172241,436.958923 386.481415,442.133331 
	C383.592285,445.320282 381.801270,445.486725 378.623871,442.267761 
	C356.868622,420.227509 334.900085,398.397797 312.750427,376.250336 
z"/>
<path fill="#FFFFFF" opacity="1.000000" stroke="none" 
	d="
M225.000000,262.000000 
	C254.142807,262.000000 282.787537,261.834045 311.426483,262.168152 
	C316.043213,262.221985 320.901917,263.929291 325.160095,265.918396 
	C329.276642,267.841309 332.015015,275.065735 330.063263,280.345978 
	C327.557007,287.126465 322.971466,290.974152 316.275055,290.987305 
	C297.624023,291.023895 278.972809,291.000000 260.321686,291.000000 
	C226.849564,291.000000 193.377441,291.001709 159.905319,290.998718 
	C152.035095,290.998047 145.632111,285.495117 144.962158,278.544281 
	C144.094955,269.546906 149.861984,263.431305 157.342941,262.976654 
	C160.917526,262.759369 164.477966,262.063141 168.047165,262.044952 
	C186.864365,261.948975 205.682312,262.000000 225.000000,262.000000 
z"/>
<path fill="#FFFFFF" opacity="1.000000" stroke="none" 
	d="
M201.661407,200.890350 
	C197.711548,197.196426 194.216675,193.855515 193.845108,188.068924 
	C193.437500,181.721207 201.644531,173.267670 207.932617,173.904266 
	C212.701965,174.387115 217.559357,174.000000 222.459381,174.000000 
	C222.981003,168.013260 223.306961,162.162903 224.044357,156.364899 
	C224.886444,149.743896 230.503128,144.606277 237.048935,144.023026 
	C242.108932,143.572174 249.333450,148.563904 250.892593,154.140320 
	C251.754822,157.224243 251.790497,160.568268 251.963425,163.807617 
	C252.131790,166.961273 252.000000,170.130951 252.000000,174.000000 
	C256.976227,174.000000 261.896332,173.983292 266.816254,174.003769 
	C274.925201,174.037537 281.038269,180.378784 281.000000,188.689514 
	C280.962433,196.838364 275.503967,201.995163 266.907806,201.999542 
	C262.104889,202.001999 257.301971,202.000000 252.000000,202.000000 
	C252.000000,207.048950 252.014236,211.825836 251.997208,216.602615 
	C251.953934,228.751953 240.374130,236.045334 230.120453,229.797318 
	C225.449219,226.950912 222.977737,221.662125 222.997131,215.753616 
	C223.011749,211.297470 223.000031,206.841202 223.000031,202.534683 
	C215.746643,201.999100 208.899521,201.493530 201.661407,200.890350 
z"/>
<path fill="#FFFFFF" opacity="1.000000" stroke="none" 
	d="
M263.440704,323.146667 
	C269.872131,326.894562 273.025665,333.701385 270.895630,339.949341 
	C269.117157,345.165924 264.860382,350.054871 256.626740,350.033875 
	C224.165237,349.951202 191.703415,350.008270 159.241699,349.994263 
	C151.127457,349.990753 144.987137,343.657074 145.000000,335.386261 
	C145.012375,327.429443 150.680847,322.001678 158.995148,322.001038 
	C191.789810,321.998505 224.584488,321.983398 257.379028,322.042786 
	C259.272736,322.046204 261.165314,322.667511 263.440704,323.146667 
z"/>
</svg>