<svg width="24" height="24" viewBox="0 0 24 24" fill="none" xmlns="http://www.w3.org/2000/svg">
<path d="M8.32007 15.27L14.86 8.72998" stroke="white" stroke-width="1.5" stroke-linecap="round" stroke-linejoin="round"/>
<path d="M8.73001 10.37C9.40932 10.37 9.95999 9.81936 9.95999 9.14005C9.95999 8.46073 9.40932 7.91003 8.73001 7.91003C8.0507 7.91003 7.5 8.46073 7.5 9.14005C7.5 9.81936 8.0507 10.37 8.73001 10.37Z" stroke="white" stroke-width="1.5" stroke-linecap="round" stroke-linejoin="round"/>
<path d="M15.27 16.09C15.9493 16.09 16.5 15.5393 16.5 14.86C16.5 14.1807 15.9493 13.63 15.27 13.63C14.5907 13.63 14.04 14.1807 14.04 14.86C14.04 15.5393 14.5907 16.09 15.27 16.09Z" stroke="white" stroke-width="1.5" stroke-linecap="round" stroke-linejoin="round"/>
<path d="M4 6C2.75 7.67 2 9.75 2 12C2 17.52 6.48 22 12 22C17.52 22 22 17.52 22 12C22 6.48 17.52 2 12 2C10.57 2 9.2 2.30001 7.97 2.85001" stroke="white" stroke-width="1.5" stroke-linecap="round" stroke-linejoin="round"/>
</svg>
