<svg width="18" height="18" viewBox="0 0 18 18" fill="none" xmlns="http://www.w3.org/2000/svg">
<path d="M14.6717 6.41504V10.5094C14.4476 10.4601 14.2236 10.4354 13.9995 10.4354C12.381 10.4354 11.0614 11.7426 11.0614 13.3459C11.0614 14.1105 11.3601 14.8011 11.8332 15.319H2.81972C2.37153 15.319 1.99805 14.9491 1.99805 14.5051V6.41504H14.6717Z" fill="#C47FFF"/>
<path d="M15.1946 4.39206V6.41458H1.5V4.39206C1.5 3.9481 1.87349 3.57812 2.32167 3.57812H14.3729C14.8211 3.57812 15.1946 3.9481 15.1946 4.39206Z" fill="#EBD4FF" stroke="white" stroke-width="0.5" stroke-miterlimit="10" stroke-linecap="round" stroke-linejoin="round"/>
<path d="M13.9996 16.2564C15.6223 16.2564 16.9377 14.9534 16.9377 13.346C16.9377 11.7386 15.6223 10.4355 13.9996 10.4355C12.377 10.4355 11.0615 11.7386 11.0615 13.346C11.0615 14.9534 12.377 16.2564 13.9996 16.2564Z" fill="white"/>
<path d="M10.065 10.3123H8.89473V9.17773H7.77427V10.3123H6.62891V11.4222H7.77427V12.5568H8.89473V11.4222H10.065V10.3123Z" fill="white"/>
<path d="M10.7376 2H5.95697C5.68308 2 5.45898 2.22198 5.45898 2.4933V3.57855H11.2356V2.4933C11.2356 2.22198 11.0115 2 10.7376 2Z" fill="#C47FFF"/>
<path d="M15.792 12.877C15.792 14.1102 13.9993 15.3188 13.9993 15.3188C13.9993 15.3188 12.2065 14.1102 12.2065 12.877C12.2065 12.3343 12.6547 11.915 13.1776 11.915C13.5262 11.915 13.825 12.0877 13.9993 12.359C14.1736 12.0877 14.4724 11.915 14.821 11.915C15.3438 11.915 15.792 12.359 15.792 12.877Z" fill="#E1545C"/>
</svg>
