<svg width="20" height="20" viewBox="0 0 20 20" fill="none" xmlns="http://www.w3.org/2000/svg">
<path d="M17.0834 8.49175H14.675C12.7 8.49175 11.0917 6.88341 11.0917 4.90841V2.50008C11.0917 2.04175 10.7167 1.66675 10.2584 1.66675H6.72504C4.15837 1.66675 2.08337 3.33341 2.08337 6.30842V13.6917C2.08337 16.6667 4.15837 18.3334 6.72504 18.3334H13.275C15.8417 18.3334 17.9167 16.6667 17.9167 13.6917V9.32508C17.9167 8.86675 17.5417 8.49175 17.0834 8.49175ZM10.2334 13.1501L8.56671 14.8167C8.50837 14.8751 8.43337 14.9251 8.35837 14.9501C8.28337 14.9834 8.20837 15.0001 8.12504 15.0001C8.04171 15.0001 7.96671 14.9834 7.89171 14.9501C7.82504 14.9251 7.75837 14.8751 7.70837 14.8251C7.70004 14.8167 7.69171 14.8167 7.69171 14.8084L6.02504 13.1417C5.78337 12.9001 5.78337 12.5001 6.02504 12.2584C6.26671 12.0167 6.66671 12.0167 6.90837 12.2584L7.50004 12.8667V9.37508C7.50004 9.03342 7.78337 8.75008 8.12504 8.75008C8.46671 8.75008 8.75004 9.03342 8.75004 9.37508V12.8667L9.35004 12.2667C9.59171 12.0251 9.99171 12.0251 10.2334 12.2667C10.475 12.5084 10.475 12.9084 10.2334 13.1501Z" fill="#C47FFF"/>
<path d="M14.5249 7.34158C15.3166 7.34991 16.4166 7.34991 17.3583 7.34991C17.8333 7.34991 18.0833 6.79158 17.7499 6.45825C16.5499 5.24991 14.3999 3.07491 13.1666 1.84158C12.8249 1.49991 12.2333 1.73325 12.2333 2.20825V5.11658C12.2333 6.33325 13.2666 7.34158 14.5249 7.34158Z" fill="#C47FFF"/>
</svg>
