<svg width="24" height="24" viewBox="0 0 24 24" fill="none" xmlns="http://www.w3.org/2000/svg">
<path d="M2.44012 13.2599L3.79012 14.8399C4.04012 15.1399 4.25012 15.6999 4.25012 16.0999L4.25012 17.7999C4.25012 18.8599 5.12012 19.7299 6.18012 19.7299L7.88012 19.7299C8.28012 19.7299 8.85012 19.9399 9.15012 20.1899L10.7301 21.5399C11.4201 22.1299 12.5501 22.1299 13.2401 21.5399L14.8401 20.1899C15.1401 19.9399 15.7001 19.7299 16.1001 19.7299L17.8301 19.7299C18.8901 19.7299 19.7601 18.8599 19.7601 17.7999L19.7601 16.0999C19.7601 15.7099 19.9601 15.1499 20.2101 14.8499L21.5601 13.2599C22.1401 12.5599 22.1401 11.4399 21.5601 10.7599L20.2101 9.16992C19.9601 8.87992 19.7601 8.30992 19.7601 7.91992L19.7601 6.20992C19.7601 5.14992 18.8901 4.27992 17.8301 4.27992L16.0901 4.27992C15.7001 4.27992 15.1301 4.06992 14.8301 3.81992L13.2501 2.46992C12.5601 1.87992 11.4301 1.87992 10.7401 2.46992L9.16012 3.81992C8.86012 4.06992 8.30012 4.27992 7.90012 4.27992L6.20012 4.27992C5.14012 4.27992 4.27012 5.14992 4.27012 6.20992L4.27012 7.90992C4.27012 8.30992 4.06012 8.86992 3.81012 9.16992L2.46012 10.7499C1.85012 11.4299 1.85012 12.5599 2.44012 13.2599ZM12.7501 15.8699C12.7501 16.2799 12.4101 16.6199 12.0001 16.6199C11.5901 16.6199 11.2501 16.2799 11.2501 15.8699L11.2501 11.0399C11.2501 10.6299 11.5901 10.2899 12.0001 10.2899C12.4101 10.2899 12.7501 10.6299 12.7501 11.0399L12.7501 15.8699ZM12.0001 7.12992C12.5501 7.12992 13.0001 7.57992 13.0001 8.12992C13.0001 8.67992 12.5601 9.12992 12.0001 9.12992C11.4501 9.12992 11.0001 8.67992 11.0001 8.12992C11.0001 7.57992 11.4401 7.12992 12.0001 7.12992Z" fill="#2C014A"/>
</svg>
