<svg width="15" height="15" viewBox="0 0 15 15" fill="none" xmlns="http://www.w3.org/2000/svg">
<path d="M8 3.52373C7.25568 2.82896 6.68056 2.40968 6.68056 2.40968C6.68056 2.40968 2.0625 5.77643 2.0625 9.2378C2.0625 12.6992 4.70139 13.625 6.68056 13.625C8.27361 13.625 10.2941 13.0252 11.0218 10.9861M6.02083 11.3159C5.17262 11.3159 4.04167 10.8983 4.04167 9.33676M13.9375 6.75608C13.9375 8.79218 12.4296 9.33676 11.2986 9.33676C10.1677 9.33676 8.65972 8.79218 8.65972 6.75608C8.65972 6.17517 8.87453 5.59879 9.18156 5.07164C9.9507 3.75113 11.2986 2.73954 11.2986 2.73954C11.2986 2.73954 13.9375 4.71998 13.9375 6.75608Z" stroke="#35D277" stroke-width="0.989583" stroke-linecap="round" stroke-linejoin="round"/>
</svg>
