<svg width="14" height="14" viewBox="0 0 14 14" fill="none" xmlns="http://www.w3.org/2000/svg">
<path d="M9.04175 7.67075H7.77591C6.73758 7.67075 5.89175 6.83075 5.89175 5.78659V4.52075C5.89175 4.28159 5.69925 4.08325 5.45425 4.08325H3.60508C2.25758 4.08325 1.16675 4.95825 1.16675 6.52159V10.3949C1.16675 11.9583 2.25758 12.8333 3.60508 12.8333H7.04091C8.38841 12.8333 9.47925 11.9583 9.47925 10.3949V8.10825C9.47925 7.86325 9.28091 7.67075 9.04175 7.67075Z" fill="#35D277"/>
<path d="M10.3949 1.16675H9.24578H8.60994H6.95911C5.64078 1.16675 4.57328 2.00675 4.52661 3.50591C4.56161 3.50591 4.59078 3.50008 4.62578 3.50008H6.27661H6.91244H8.06161C9.40911 3.50008 10.4999 4.37508 10.4999 5.93841V7.08758V8.66841V9.81758C10.4999 9.85258 10.4941 9.88175 10.4941 9.91091C11.7949 9.87008 12.8333 9.00675 12.8333 7.48425V6.33508V4.75425V3.60508C12.8333 2.04175 11.7424 1.16675 10.3949 1.16675Z" fill="#35D277"/>
<path d="M6.98829 4.17093C6.80746 3.9901 6.49829 4.1126 6.49829 4.36343V5.89177C6.49829 6.53343 7.04079 7.05843 7.70579 7.05843C8.11996 7.06427 8.69746 7.06427 9.19329 7.06427C9.44412 7.06427 9.57246 6.7726 9.39746 6.5976C8.76162 5.96177 7.62996 4.82427 6.98829 4.17093Z" fill="#35D277"/>
</svg>
