<svg width="24" height="24" viewBox="0 0 24 24" fill="none" xmlns="http://www.w3.org/2000/svg">
<path d="M18.3641 18.364C17.9736 18.7545 17.3404 18.7545 16.9499 18.364L5.63616 7.05028C5.24563 6.65975 5.24563 6.02659 5.63615 5.63606C6.02668 5.24554 6.65984 5.24554 7.05037 5.63606L18.3641 16.9498C18.7546 17.3403 18.7546 17.9735 18.3641 18.364Z" fill="#52525B"/>
<path d="M13.1716 11.7423L18.682 6.23185C19.0726 5.84132 19.0726 5.20816 18.682 4.81763C18.2915 4.42711 17.6583 4.42711 17.2678 4.81763L11.7574 10.328C11.3669 10.7186 11.3669 11.3517 11.7574 11.7423C12.1479 12.1328 12.7811 12.1328 13.1716 11.7423Z" fill="#52525B"/>
<path d="M6.12132 19.0714L9.76558 15.4271C10.1561 15.0366 10.1561 14.4034 9.76558 14.0129C9.37505 13.6224 8.74189 13.6224 8.35136 14.0129L4.70711 17.6572C4.31658 18.0477 4.31658 18.6808 4.70711 19.0714C5.09763 19.4619 5.7308 19.4619 6.12132 19.0714Z" fill="#52525B"/>
</svg>
