<svg width="24" height="24" viewBox="0 0 24 24" fill="none" xmlns="http://www.w3.org/2000/svg">
<path d="M11.0273 16.579L10.172 17.82V17.8204L10.0728 17.9649C9.94659 18.1488 9.76897 18.2638 9.54398 18.2407C9.42932 18.229 9.30939 18.1797 9.21518 18.1119C9.12097 18.0442 9.03541 17.946 8.98581 17.8398C8.89362 17.6423 8.9307 17.4418 9.04309 17.2651V17.2636L10.3553 15.3593L10.356 15.3586C10.4821 15.1793 10.6581 15.0673 10.8801 15.09C10.9947 15.1017 11.1142 15.1508 11.2084 15.2186C11.3026 15.2864 11.3883 15.3847 11.4378 15.491C11.5348 15.699 11.4887 15.9093 11.3624 16.0926L11.0273 16.579ZM9.94252 14.8739C10.0686 14.6905 10.1146 14.4804 10.0177 14.2723C9.96829 14.1662 9.88262 14.0677 9.78842 14C9.69411 13.9324 9.57458 13.8833 9.45992 13.8716C9.23503 13.8487 9.05736 13.9637 8.9309 14.1473L8.59245 14.6387H8.54552V14.7061L7.63957 16.0213L7.36594 16.4187C7.23922 16.6028 7.19581 16.8094 7.29047 17.018C7.38895 17.235 7.61741 17.3992 7.85074 17.4204C8.07488 17.4408 8.25059 17.3294 8.37731 17.1456L8.56075 16.8794L9.85137 15.0063L9.94252 14.8739ZM6.63579 6.11456L4.85824 5.0666C4.78417 5.02287 4.70012 4.99984 4.61456 4.99981C4.5707 4.99981 4.52748 5.00576 4.48513 5.0173C4.35806 5.05188 4.25114 5.13442 4.18532 5.25072L1.0656 10.7675C0.930042 11.0073 1.01149 11.3161 1.24618 11.4545L3.02372 12.5025C3.07977 12.5355 3.14165 12.5568 3.20581 12.5653C3.26997 12.5737 3.33513 12.5691 3.39754 12.5517C3.52396 12.517 3.63108 12.4342 3.69664 12.3184L6.81636 6.80157C6.95212 6.56143 6.87088 6.25317 6.63579 6.11456ZM8.08152 14.3351V14.2949C8.19376 14.1182 8.23049 13.9178 8.13814 13.7205C8.08855 13.6145 8.00283 13.5161 7.90863 13.4486C7.81437 13.3809 7.69479 13.332 7.58023 13.3203C7.35544 13.2974 7.17777 13.4123 7.05136 13.5958L6.12832 14.9359C6.00206 15.1193 5.95593 15.3294 6.05295 15.5374C6.10259 15.6438 6.18796 15.7416 6.28222 15.8096C6.37607 15.8774 6.49616 15.9265 6.61036 15.9382C6.83204 15.9609 7.008 15.8496 7.13421 15.6704L7.13486 15.6698L8.04569 14.3478L8.08152 14.3351ZM22.9343 10.7675L19.8146 5.25072C19.7489 5.13452 19.6418 5.05203 19.5149 5.0173C19.4727 5.00571 19.4291 4.99981 19.3854 4.99976C19.2995 4.99976 19.2161 5.02269 19.1417 5.06655L17.3639 6.11451C17.3079 6.1475 17.2589 6.19146 17.2196 6.24388C17.1804 6.29629 17.1516 6.35611 17.1351 6.41989C17.1181 6.48362 17.1137 6.55015 17.122 6.61564C17.1303 6.68113 17.1512 6.7443 17.1835 6.80152L20.303 12.3183C20.3687 12.4345 20.4757 12.5171 20.6024 12.5517C20.6648 12.569 20.7299 12.5736 20.794 12.5651C20.858 12.5567 20.9199 12.5354 20.9759 12.5025L22.7536 11.4547C22.9887 11.3163 23.0699 11.0074 22.9343 10.7675ZM11.5137 16.9782L11.4914 16.9893L10.6901 18.1535L10.6873 18.1784C10.6568 18.4519 10.8426 18.7014 11.0771 18.8124C11.3662 18.9493 11.6376 18.8644 11.8211 18.598L12.2841 17.926C12.4677 17.6594 12.4537 17.371 12.23 17.1395C12.0479 16.9511 11.7568 16.8566 11.5137 16.9782ZM16.7655 7.45836C16.0156 7.67439 15.2465 7.76652 14.4681 7.74195C13.8684 7.72302 13.284 7.63488 12.6989 7.50335C12.2666 7.40624 11.8052 7.33534 11.3709 7.45928C11.0387 7.55404 10.7552 7.75067 10.4914 7.97162C10.3193 8.11572 10.1549 8.27075 9.99366 8.42716C9.78987 8.62492 9.5898 8.82694 9.38948 9.02835C9.23372 9.18516 9.07756 9.34156 8.921 9.49754L8.89377 9.52462L8.79283 11.6889C8.78825 11.7871 8.79448 11.9566 8.88688 12.0161C8.96637 12.0673 9.09731 12.0554 9.18518 12.0388C9.35255 12.0074 9.52212 11.9331 9.6711 11.8509C9.99819 11.6706 10.2693 11.0361 10.4233 10.7001C10.497 10.5394 10.5706 10.3779 10.6521 10.2211C10.6835 10.1608 10.7334 10.1126 10.7942 10.0841C10.8674 10.0495 10.9404 10.0144 11.0132 9.97904C11.3793 9.80169 11.7646 9.61404 12.1684 9.5493C12.5528 9.48769 12.9048 9.54873 13.2429 9.74855L18.0704 12.602L19.3739 11.9224L16.8376 7.43764L16.7655 7.45836ZM17.9072 13.2261L12.937 10.2884C12.8273 10.2236 12.7107 10.1799 12.5851 10.1614C12.3799 10.1311 12.1737 10.1723 11.9788 10.2371C11.7393 10.3166 11.5027 10.4322 11.2753 10.5425C11.2421 10.5585 11.2089 10.5746 11.1757 10.5906L11.1452 10.6052L11.1302 10.636C11.0777 10.7449 11.0264 10.8544 10.9764 10.9645C10.7474 11.4642 10.4537 12.1288 9.96141 12.4001C9.56031 12.6212 8.98546 12.8165 8.56175 12.5443C8.45654 12.4767 8.36992 12.3825 8.30782 12.2728C8.20286 12.0875 8.17306 11.8706 8.18291 11.6594L8.28933 9.37206C8.29287 9.29282 8.32586 9.21793 8.38158 9.16265C8.57557 8.97084 8.76821 8.77764 8.96049 8.58409C9.04058 8.50345 9.12092 8.42311 9.20111 8.34252L9.31064 8.23238L7.15667 7.44682L4.56989 12.0222L6.06999 13.9358L6.55153 13.2371C6.84375 12.813 7.29419 12.6078 7.79502 12.7256C7.87351 12.744 7.95023 12.7701 8.02399 12.8029C8.10697 12.8398 8.18608 12.8852 8.26014 12.9384C8.42343 13.0556 8.56175 13.2106 8.65797 13.3894L8.70766 13.4818L8.79453 13.4249C9.21377 13.1505 9.7432 13.2049 10.14 13.4901C10.4269 13.6961 10.6353 14.0174 10.6756 14.3768L10.6858 14.4677L10.7753 14.464C11.0541 14.4527 11.3326 14.5454 11.5599 14.7087C12.034 15.0496 12.2434 15.6479 11.9992 16.2068L11.9529 16.3126L12.0627 16.3421C12.292 16.4038 12.4989 16.5297 12.6652 16.7019C13.0487 17.0991 13.1319 17.6422 12.873 18.1347L12.829 18.2185L13.9752 18.8999C14.165 19.0128 14.3735 19.0417 14.5684 18.9252C14.6677 18.8658 14.7565 18.7703 14.8144 18.6686C14.8723 18.567 14.91 18.4411 14.9117 18.3236C14.915 18.0931 14.7881 17.9221 14.5984 17.809L14.5758 17.7955H14.5753L13.2591 17.0134C13.1135 16.9268 13.0648 16.7354 13.1494 16.5869C13.1695 16.5515 13.1963 16.5205 13.2282 16.4957C13.26 16.4709 13.2964 16.4528 13.3351 16.4423C13.3739 16.4318 13.4142 16.4292 13.454 16.4347C13.4937 16.4402 13.5319 16.4536 13.5666 16.4741L14.903 17.2685C14.9049 17.2697 14.9069 17.2709 14.9089 17.272L15.3246 17.519C15.5146 17.6319 15.7231 17.6608 15.9182 17.5443C16.0174 17.485 16.1064 17.3892 16.1642 17.2876C16.222 17.1857 16.2596 17.0603 16.2612 16.9426C16.2644 16.7165 16.1421 16.5478 15.9583 16.4347L15.9576 16.4339L14.3064 15.4522C14.161 15.3657 14.112 15.1738 14.1967 15.0255C14.2815 14.8769 14.4684 14.827 14.6139 14.9135L16.2774 15.902H16.2778L16.7808 16.2016C16.9707 16.3147 17.1772 16.3409 17.3722 16.227C17.5757 16.1082 17.7159 15.8616 17.7168 15.6224C17.7177 15.3925 17.5939 15.2234 17.4035 15.1101L16.9785 14.8572L15.354 13.8914C15.2085 13.8049 15.1587 13.6137 15.2435 13.465C15.3284 13.3164 15.5158 13.2656 15.6615 13.3522L17.286 14.3181C17.4759 14.4311 17.6843 14.4596 17.8791 14.3427C17.9785 14.283 18.0664 14.1877 18.1247 14.0861C18.1829 13.9846 18.2207 13.8578 18.2222 13.7403C18.2253 13.5095 18.0976 13.3386 17.9072 13.2261Z" fill="#2C014A"/>
</svg>
