<svg width="25" height="24" viewBox="0 0 25 24" fill="none" xmlns="http://www.w3.org/2000/svg">
<path opacity="0.4" d="M21.0268 12.7301C20.6568 12.7301 20.3468 12.4501 20.3068 12.0801C20.0668 9.88007 18.8868 7.90007 17.0668 6.64007C16.7368 6.41007 16.6568 5.96007 16.8868 5.63007C17.1168 5.30007 17.5668 5.22007 17.8968 5.45007C20.0668 6.96007 21.4668 9.32007 21.7568 11.9301C21.7968 12.3301 21.5068 12.6901 21.1068 12.7301C21.0768 12.7301 21.0568 12.7301 21.0268 12.7301Z" fill="#C47FFF"/>
<path opacity="0.4" d="M4.40679 12.7802C4.38679 12.7802 4.35679 12.7802 4.33679 12.7802C3.93679 12.7402 3.64679 12.3802 3.68679 11.9802C3.95679 9.3702 5.33679 7.0102 7.48679 5.4902C7.80679 5.2602 8.26679 5.3402 8.49679 5.6602C8.72679 5.9902 8.64679 6.4402 8.32679 6.6702C6.52679 7.9502 5.35679 9.9302 5.13679 12.1202C5.09679 12.5002 4.77679 12.7802 4.40679 12.7802Z" fill="#C47FFF"/>
<path opacity="0.4" d="M16.6568 21.0998C15.4268 21.6898 14.1068 21.9898 12.7268 21.9898C11.2868 21.9898 9.91685 21.6698 8.63685 21.0198C8.27685 20.8498 8.13685 20.4098 8.31685 20.0498C8.48685 19.6898 8.92685 19.5498 9.28685 19.7198C9.91685 20.0398 10.5868 20.2598 11.2668 20.3898C12.1868 20.5698 13.1268 20.5798 14.0468 20.4198C14.7268 20.2998 15.3968 20.0898 16.0168 19.7898C16.3868 19.6198 16.8268 19.7598 16.9868 20.1298C17.1668 20.4898 17.0268 20.9298 16.6568 21.0998Z" fill="#C47FFF"/>
<path d="M12.7167 2.00977C11.1667 2.00977 9.89673 3.26977 9.89673 4.82977C9.89673 6.38977 11.1567 7.64977 12.7167 7.64977C14.2767 7.64977 15.5367 6.38977 15.5367 4.82977C15.5367 3.26977 14.2767 2.00977 12.7167 2.00977Z" fill="#C47FFF"/>
<path d="M5.71673 13.8701C4.16673 13.8701 2.89673 15.1301 2.89673 16.6901C2.89673 18.2501 4.15673 19.5101 5.71673 19.5101C7.27673 19.5101 8.53673 18.2501 8.53673 16.6901C8.53673 15.1301 7.26673 13.8701 5.71673 13.8701Z" fill="#C47FFF"/>
<path d="M19.6166 13.8701C18.0666 13.8701 16.7966 15.1301 16.7966 16.6901C16.7966 18.2501 18.0566 19.5101 19.6166 19.5101C21.1766 19.5101 22.4366 18.2501 22.4366 16.6901C22.4366 15.1301 21.1766 13.8701 19.6166 13.8701Z" fill="#C47FFF"/>
</svg>
