<svg width="13" height="13" viewBox="0 0 13 13" fill="none" xmlns="http://www.w3.org/2000/svg">
<path d="M8.8468 8.36719L6.79137 6.5H5.41259L3.35716 8.36719C2.78224 8.88614 2.594 9.68491 2.87382 10.4074C3.15365 11.1247 3.8354 11.5877 4.60365 11.5877H7.60031C8.37365 11.5877 9.05031 11.1247 9.33014 10.4074C9.60996 9.68491 9.42172 8.88614 8.8468 8.36719ZM7.03049 9.62386H5.17856C4.98523 9.62386 4.83259 9.46614 4.83259 9.27789C4.83259 9.08965 4.99031 8.93193 5.17856 8.93193H7.03049C7.22382 8.93193 7.37645 9.08965 7.37645 9.27789C7.37645 9.46614 7.21873 9.62386 7.03049 9.62386Z" fill="#35D277"/>
<path d="M9.33575 2.5927C9.05592 1.87534 8.37417 1.41235 7.60592 1.41235H4.60417C3.83592 1.41235 3.15417 1.87534 2.87434 2.5927C2.59961 3.31516 2.78785 4.11393 3.36276 4.63288L5.4182 6.50007H6.79697L8.85241 4.63288C9.42224 4.11393 9.61048 3.31516 9.33575 2.5927ZM7.03101 4.07323H5.17908C4.98575 4.07323 4.83312 3.91551 4.83312 3.72727C4.83312 3.53902 4.99083 3.3813 5.17908 3.3813H7.03101C7.22434 3.3813 7.37698 3.53902 7.37698 3.72727C7.37698 3.91551 7.21926 4.07323 7.03101 4.07323Z" fill="#35D277"/>
</svg>
