<svg width="12" height="12" viewBox="0 0 12 12" fill="none" xmlns="http://www.w3.org/2000/svg">
<path d="M4.25 6.00003L5.41667 7.1667L7.75 4.83336M3.57026 1.73997C3.98883 1.70657 4.38618 1.54198 4.70577 1.26963C5.45155 0.634081 6.54845 0.634081 7.29423 1.26963C7.61382 1.54198 8.01117 1.70657 8.42974 1.73997C9.40649 1.81792 10.1821 2.59354 10.2601 3.57029C10.2935 3.98886 10.458 4.38621 10.7304 4.7058C11.3659 5.45158 11.3659 6.54848 10.7304 7.29426C10.458 7.61385 10.2935 8.0112 10.2601 8.42977C10.1821 9.40652 9.40649 10.1821 8.42974 10.2601C8.01117 10.2935 7.61382 10.4581 7.29423 10.7304C6.54845 11.366 5.45155 11.366 4.70577 10.7304C4.38618 10.4581 3.98883 10.2935 3.57026 10.2601C2.59351 10.1821 1.81789 9.40652 1.73994 8.42977C1.70654 8.0112 1.54195 7.61385 1.2696 7.29426C0.63405 6.54848 0.63405 5.45158 1.2696 4.7058C1.54195 4.38621 1.70654 3.98886 1.73994 3.57029C1.81789 2.59354 2.59351 1.81792 3.57026 1.73997Z" stroke="#C47FFF" stroke-linecap="round" stroke-linejoin="round"/>
</svg>
