<svg width="24" height="26" viewBox="0 0 24 26" fill="none" xmlns="http://www.w3.org/2000/svg">
<mask id="mask0_511_9414" style="mask-type:alpha" maskUnits="userSpaceOnUse" x="0" y="0" width="24" height="26">
<path d="M21.801 26H2.34198C1.305 26 0.464355 25.1685 0.464355 24.1429V1.85714C0.464355 0.831472 1.305 0 2.34198 0H14.9733L23.6786 8.61039V24.1429C23.6786 25.1685 22.838 26 21.801 26Z" fill="url(#paint0_linear_511_9414)"/>
</mask>
<g mask="url(#mask0_511_9414)">
<path d="M21.801 26H2.34198C1.305 26 0.464355 25.1685 0.464355 24.1429V1.85714C0.464355 0.831472 1.305 0 2.34198 0H14.9733L23.6786 8.61039V24.1429C23.6786 25.1685 22.838 26 21.801 26Z" fill="url(#paint1_linear_511_9414)"/>
<g opacity="0.23" filter="url(#filter0_f_511_9414)">
<rect x="1.74463" y="12.5771" width="20.8246" height="7.09091" fill="#E32E06" style="mix-blend-mode:darken"/>
</g>
<path opacity="0.12" fill-rule="evenodd" clip-rule="evenodd" d="M12.0712 18.8605C15.1822 18.8605 17.7041 16.3386 17.7041 13.2276C17.7041 10.1167 15.1822 7.59473 12.0712 7.59473C8.96028 7.59473 6.43835 10.1167 6.43835 13.2276C6.43835 16.3386 8.96028 18.8605 12.0712 18.8605ZM12.0712 17.7216C9.58926 17.7216 7.57723 15.7096 7.57723 13.2276C7.57723 10.9493 9.27258 9.067 11.4705 8.7734V12.6269V13.753V13.7535L16.5348 13.7535C16.2744 15.9877 14.3753 17.7216 12.0712 17.7216ZM16.5254 12.6269H12.5971V8.76404C14.6338 9.00142 16.2548 10.6006 16.5254 12.6269ZM17.4484 21.1892H6.6947V20.165H17.4484V21.1892ZM17.4484 23.7199H6.6947V22.6958H17.4484V23.7199Z" fill="white"/>
<mask id="path-5-outside-1_511_9414" maskUnits="userSpaceOnUse" x="4.98767" y="13.2407" width="15" height="6" fill="black">
<rect fill="white" x="4.98767" y="13.2407" width="15" height="6"/>
<path d="M6.05396 18.2744C5.96856 18.2744 5.89664 18.2452 5.8382 18.1868C5.77977 18.1283 5.75055 18.0564 5.75055 17.971V13.8447C5.75055 13.7593 5.77977 13.6874 5.8382 13.6289C5.89664 13.566 5.96856 13.5345 6.05396 13.5345H7.59122C8.01824 13.5345 8.3666 13.6065 8.63629 13.7503C8.90599 13.8941 9.09927 14.0784 9.21614 14.3032C9.33301 14.5279 9.39144 14.7706 9.39144 15.0313C9.39144 15.2921 9.33301 15.5348 9.21614 15.7595C9.09927 15.9843 8.90599 16.1686 8.63629 16.3124C8.3666 16.4562 8.01824 16.5282 7.59122 16.5282H6.36411V17.971C6.36411 18.0564 6.33265 18.1283 6.26972 18.1868C6.21128 18.2452 6.13936 18.2744 6.05396 18.2744ZM7.53054 15.9483C7.98902 15.9483 8.31041 15.8607 8.4947 15.6854C8.68349 15.5101 8.77788 15.2921 8.77788 15.0313C8.77788 14.7706 8.68349 14.5526 8.4947 14.3773C8.31041 14.202 7.98902 14.1144 7.53054 14.1144H6.36411V15.9483H7.53054ZM11.056 18.2407C10.9706 18.2407 10.8986 18.2115 10.8402 18.1531C10.7818 18.0946 10.7526 18.0227 10.7526 17.9373V13.8447C10.7526 13.7593 10.7818 13.6874 10.8402 13.6289C10.8986 13.566 10.9706 13.5345 11.056 13.5345H12.4112C12.9236 13.5345 13.3574 13.6492 13.7125 13.8784C14.0721 14.1031 14.3418 14.3953 14.5216 14.7549C14.7013 15.1145 14.7912 15.4921 14.7912 15.8876C14.7912 16.2832 14.7013 16.6608 14.5216 17.0204C14.3418 17.3799 14.0721 17.6744 13.7125 17.9036C13.3574 18.1283 12.9236 18.2407 12.4112 18.2407H11.056ZM12.337 17.6676C12.7056 17.6676 13.0292 17.5935 13.3079 17.4451C13.5866 17.2923 13.8024 17.0833 13.9552 16.8181C14.108 16.5484 14.1844 16.2382 14.1844 15.8876C14.1844 15.537 14.108 15.2291 13.9552 14.9639C13.8024 14.6942 13.5866 14.4852 13.3079 14.3369C13.0292 14.1841 12.7056 14.1076 12.337 14.1076H11.3661V17.6676H12.337ZM16.5913 18.2744C16.5059 18.2744 16.434 18.2452 16.3755 18.1868C16.3171 18.1283 16.2879 18.0564 16.2879 17.971V13.8447C16.2879 13.7593 16.3171 13.6874 16.3755 13.6289C16.434 13.566 16.5059 13.5345 16.5913 13.5345H19.2141C19.295 13.5345 19.3624 13.5638 19.4164 13.6222C19.4748 13.6761 19.504 13.7436 19.504 13.8245C19.504 13.9054 19.4748 13.9728 19.4164 14.0267C19.3624 14.0807 19.295 14.1076 19.2141 14.1076H16.9015V15.5977H18.9781C19.059 15.5977 19.1264 15.6269 19.1804 15.6854C19.2388 15.7393 19.268 15.8067 19.268 15.8876C19.268 15.9685 19.2388 16.036 19.1804 16.0899C19.1264 16.1438 19.059 16.1708 18.9781 16.1708H16.9015V17.971C16.9015 18.0564 16.87 18.1283 16.8071 18.1868C16.7486 18.2452 16.6767 18.2744 16.5913 18.2744Z"/>
</mask>
<path d="M6.05396 18.2744C5.96856 18.2744 5.89664 18.2452 5.8382 18.1868C5.77977 18.1283 5.75055 18.0564 5.75055 17.971V13.8447C5.75055 13.7593 5.77977 13.6874 5.8382 13.6289C5.89664 13.566 5.96856 13.5345 6.05396 13.5345H7.59122C8.01824 13.5345 8.3666 13.6065 8.63629 13.7503C8.90599 13.8941 9.09927 14.0784 9.21614 14.3032C9.33301 14.5279 9.39144 14.7706 9.39144 15.0313C9.39144 15.2921 9.33301 15.5348 9.21614 15.7595C9.09927 15.9843 8.90599 16.1686 8.63629 16.3124C8.3666 16.4562 8.01824 16.5282 7.59122 16.5282H6.36411V17.971C6.36411 18.0564 6.33265 18.1283 6.26972 18.1868C6.21128 18.2452 6.13936 18.2744 6.05396 18.2744ZM7.53054 15.9483C7.98902 15.9483 8.31041 15.8607 8.4947 15.6854C8.68349 15.5101 8.77788 15.2921 8.77788 15.0313C8.77788 14.7706 8.68349 14.5526 8.4947 14.3773C8.31041 14.202 7.98902 14.1144 7.53054 14.1144H6.36411V15.9483H7.53054ZM11.056 18.2407C10.9706 18.2407 10.8986 18.2115 10.8402 18.1531C10.7818 18.0946 10.7526 18.0227 10.7526 17.9373V13.8447C10.7526 13.7593 10.7818 13.6874 10.8402 13.6289C10.8986 13.566 10.9706 13.5345 11.056 13.5345H12.4112C12.9236 13.5345 13.3574 13.6492 13.7125 13.8784C14.0721 14.1031 14.3418 14.3953 14.5216 14.7549C14.7013 15.1145 14.7912 15.4921 14.7912 15.8876C14.7912 16.2832 14.7013 16.6608 14.5216 17.0204C14.3418 17.3799 14.0721 17.6744 13.7125 17.9036C13.3574 18.1283 12.9236 18.2407 12.4112 18.2407H11.056ZM12.337 17.6676C12.7056 17.6676 13.0292 17.5935 13.3079 17.4451C13.5866 17.2923 13.8024 17.0833 13.9552 16.8181C14.108 16.5484 14.1844 16.2382 14.1844 15.8876C14.1844 15.537 14.108 15.2291 13.9552 14.9639C13.8024 14.6942 13.5866 14.4852 13.3079 14.3369C13.0292 14.1841 12.7056 14.1076 12.337 14.1076H11.3661V17.6676H12.337ZM16.5913 18.2744C16.5059 18.2744 16.434 18.2452 16.3755 18.1868C16.3171 18.1283 16.2879 18.0564 16.2879 17.971V13.8447C16.2879 13.7593 16.3171 13.6874 16.3755 13.6289C16.434 13.566 16.5059 13.5345 16.5913 13.5345H19.2141C19.295 13.5345 19.3624 13.5638 19.4164 13.6222C19.4748 13.6761 19.504 13.7436 19.504 13.8245C19.504 13.9054 19.4748 13.9728 19.4164 14.0267C19.3624 14.0807 19.295 14.1076 19.2141 14.1076H16.9015V15.5977H18.9781C19.059 15.5977 19.1264 15.6269 19.1804 15.6854C19.2388 15.7393 19.268 15.8067 19.268 15.8876C19.268 15.9685 19.2388 16.036 19.1804 16.0899C19.1264 16.1438 19.059 16.1708 18.9781 16.1708H16.9015V17.971C16.9015 18.0564 16.87 18.1283 16.8071 18.1868C16.7486 18.2452 16.6767 18.2744 16.5913 18.2744Z" fill="white"/>
<path d="M5.8382 18.1868L5.9589 18.0661H5.9589L5.8382 18.1868ZM5.8382 13.6289L5.95898 13.7497L5.96329 13.7451L5.8382 13.6289ZM8.63629 13.7503L8.71662 13.5997L8.63629 13.7503ZM9.21614 14.3032L9.0647 14.3819L9.21614 14.3032ZM9.21614 15.7595L9.0647 15.6808L9.21614 15.7595ZM8.63629 16.3124L8.71662 16.463L8.63629 16.3124ZM6.36411 16.5282V16.3575H6.19342V16.5282H6.36411ZM6.26972 18.1868L6.15349 18.0616L6.14902 18.0661L6.26972 18.1868ZM8.4947 15.6854L8.37855 15.5603L8.37706 15.5617L8.4947 15.6854ZM8.4947 14.3773L8.37705 14.501L8.37855 14.5024L8.4947 14.3773ZM6.36411 14.1144V13.9437H6.19342V14.1144H6.36411ZM6.36411 15.9483H6.19342V16.119H6.36411V15.9483ZM6.05396 18.1037C6.01213 18.1037 5.98415 18.0913 5.9589 18.0661L5.71751 18.3075C5.80913 18.3991 5.92498 18.4451 6.05396 18.4451V18.1037ZM5.9589 18.0661C5.93366 18.0408 5.92125 18.0129 5.92125 17.971H5.57986C5.57986 18.1 5.62588 18.2159 5.71751 18.3075L5.9589 18.0661ZM5.92125 17.971V13.8447H5.57986V17.971H5.92125ZM5.92125 13.8447C5.92125 13.8029 5.93366 13.7749 5.9589 13.7496L5.71751 13.5082C5.62588 13.5999 5.57986 13.7157 5.57986 13.8447H5.92125ZM5.96329 13.7451C5.98963 13.7167 6.01632 13.7052 6.05396 13.7052V13.3638C5.92079 13.3638 5.80365 13.4153 5.71312 13.5128L5.96329 13.7451ZM6.05396 13.7052H7.59122V13.3638H6.05396V13.7052ZM7.59122 13.7052C8.00073 13.7052 8.31885 13.7744 8.55597 13.9009L8.71662 13.5997C8.41435 13.4385 8.03575 13.3638 7.59122 13.3638V13.7052ZM8.55597 13.9009C8.80163 14.0319 8.96677 14.1936 9.0647 14.3819L9.36758 14.2244C9.23177 13.9632 9.01035 13.7563 8.71662 13.5997L8.55597 13.9009ZM9.0647 14.3819C9.16854 14.5816 9.22075 14.7972 9.22075 15.0313H9.56213C9.56213 14.7441 9.49747 14.4742 9.36758 14.2244L9.0647 14.3819ZM9.22075 15.0313C9.22075 15.2655 9.16854 15.4811 9.0647 15.6808L9.36758 15.8383C9.49747 15.5885 9.56213 15.3186 9.56213 15.0313H9.22075ZM9.0647 15.6808C8.96677 15.8691 8.80163 16.0308 8.55597 16.1618L8.71662 16.463C9.01035 16.3064 9.23177 16.0995 9.36758 15.8383L9.0647 15.6808ZM8.55597 16.1618C8.31885 16.2883 8.00073 16.3575 7.59122 16.3575V16.6989C8.03575 16.6989 8.41435 16.6242 8.71662 16.463L8.55597 16.1618ZM7.59122 16.3575H6.36411V16.6989H7.59122V16.3575ZM6.19342 16.5282V17.971H6.5348V16.5282H6.19342ZM6.19342 17.971C6.19342 18.0087 6.18193 18.0354 6.15357 18.0617L6.38586 18.3119C6.48336 18.2213 6.5348 18.1042 6.5348 17.971H6.19342ZM6.14902 18.0661C6.12377 18.0913 6.09579 18.1037 6.05396 18.1037V18.4451C6.18294 18.4451 6.29879 18.3991 6.39041 18.3075L6.14902 18.0661ZM7.53054 16.119C8.00097 16.119 8.37901 16.031 8.61235 15.809L8.37706 15.5617C8.24181 15.6903 7.97708 15.7776 7.53054 15.7776V16.119ZM8.61085 15.8104C8.83489 15.6024 8.94858 15.3389 8.94858 15.0313H8.60719C8.60719 15.2452 8.53209 15.4177 8.37855 15.5603L8.61085 15.8104ZM8.94858 15.0313C8.94858 14.7238 8.83489 14.4603 8.61085 14.2523L8.37855 14.5024C8.53209 14.645 8.60719 14.8175 8.60719 15.0313H8.94858ZM8.61235 14.2537C8.37901 14.0317 8.00097 13.9437 7.53054 13.9437V14.2851C7.97708 14.2851 8.24181 14.3724 8.37706 14.501L8.61235 14.2537ZM7.53054 13.9437H6.36411V14.2851H7.53054V13.9437ZM6.19342 14.1144V15.9483H6.5348V14.1144H6.19342ZM6.36411 16.119H7.53054V15.7776H6.36411V16.119ZM10.8402 18.1531L10.9609 18.0324L10.8402 18.1531ZM10.8402 13.6289L10.961 13.7497L10.9653 13.7451L10.8402 13.6289ZM13.7125 13.8784L13.6199 14.0218L13.622 14.0231L13.7125 13.8784ZM14.5216 14.7549L14.3689 14.8312L14.5216 14.7549ZM14.5216 17.0204L14.3689 16.944L14.5216 17.0204ZM13.7125 17.9036L13.8038 18.0478L13.8042 18.0475L13.7125 17.9036ZM13.3079 17.4451L13.3881 17.5958L13.39 17.5948L13.3079 17.4451ZM13.9552 16.8181L14.1031 16.9033L14.1037 16.9022L13.9552 16.8181ZM13.9552 14.9639L13.8067 15.0481L13.8073 15.0492L13.9552 14.9639ZM13.3079 14.3369L13.2258 14.4866L13.2277 14.4876L13.3079 14.3369ZM11.3661 14.1076V13.9369H11.1954V14.1076H11.3661ZM11.3661 17.6676H11.1954V17.8383H11.3661V17.6676ZM11.056 18.07C11.0141 18.07 10.9862 18.0576 10.9609 18.0324L10.7195 18.2738C10.8111 18.3654 10.927 18.4114 11.056 18.4114V18.07ZM10.9609 18.0324C10.9357 18.0071 10.9233 17.9791 10.9233 17.9373H10.5819C10.5819 18.0663 10.6279 18.1821 10.7195 18.2738L10.9609 18.0324ZM10.9233 17.9373V13.8447H10.5819V17.9373H10.9233ZM10.9233 13.8447C10.9233 13.8029 10.9357 13.7749 10.9609 13.7496L10.7195 13.5082C10.6279 13.5999 10.5819 13.7157 10.5819 13.8447H10.9233ZM10.9653 13.7451C10.9916 13.7167 11.0183 13.7052 11.056 13.7052V13.3638C10.9228 13.3638 10.8057 13.4153 10.7151 13.5128L10.9653 13.7451ZM11.056 13.7052H12.4112V13.3638H11.056V13.7052ZM12.4112 13.7052C12.8978 13.7052 13.2977 13.8138 13.6199 14.0218L13.805 13.735C13.417 13.4845 12.9494 13.3638 12.4112 13.3638V13.7052ZM13.622 14.0231C13.9565 14.2322 14.2039 14.5013 14.3689 14.8312L14.6742 14.6786C14.4796 14.2893 14.1876 13.9741 13.8029 13.7337L13.622 14.0231ZM14.3689 14.8312C14.537 15.1675 14.6206 15.519 14.6206 15.8876H14.9619C14.9619 15.4651 14.8657 15.0615 14.6742 14.6786L14.3689 14.8312ZM14.6206 15.8876C14.6206 16.2562 14.537 16.6077 14.3689 16.944L14.6742 17.0967C14.8657 16.7138 14.9619 16.3101 14.9619 15.8876H14.6206ZM14.3689 16.944C14.2037 17.2743 13.9559 17.546 13.6207 17.7597L13.8042 18.0475C14.1882 17.8027 14.4798 17.4856 14.6742 17.0967L14.3689 16.944ZM13.6212 17.7594C13.2988 17.9634 12.8984 18.07 12.4112 18.07V18.4114C12.9488 18.4114 13.4159 18.2933 13.8038 18.0478L13.6212 17.7594ZM12.4112 18.07H11.056V18.4114H12.4112V18.07ZM12.337 17.8383C12.7289 17.8383 13.0809 17.7593 13.3881 17.5958L13.2277 17.2944C12.9776 17.4276 12.6823 17.4969 12.337 17.4969V17.8383ZM13.39 17.5948C13.695 17.4275 13.934 17.1967 14.1031 16.9033L13.8073 16.7329C13.6707 16.9699 13.4782 17.1571 13.2258 17.2955L13.39 17.5948ZM14.1037 16.9022C14.2729 16.6037 14.3551 16.2638 14.3551 15.8876H14.0137C14.0137 16.2127 13.9431 16.4931 13.8067 16.7339L14.1037 16.9022ZM14.3551 15.8876C14.3551 15.5115 14.2729 15.1734 14.1031 14.8787L13.8073 15.0492C13.9431 15.2849 14.0137 15.5625 14.0137 15.8876H14.3551ZM14.1037 14.8798C13.9346 14.5813 13.6949 14.3495 13.3881 14.1862L13.2277 14.4876C13.4783 14.621 13.6702 14.8071 13.8067 15.0481L14.1037 14.8798ZM13.39 14.1872C13.0824 14.0185 12.7297 13.9369 12.337 13.9369V14.2783C12.6815 14.2783 12.9761 14.3496 13.2258 14.4865L13.39 14.1872ZM12.337 13.9369H11.3661V14.2783H12.337V13.9369ZM11.1954 14.1076V17.6676H11.5368V14.1076H11.1954ZM11.3661 17.8383H12.337V17.4969H11.3661V17.8383ZM16.3755 18.1868L16.4962 18.0661L16.3755 18.1868ZM16.3755 13.6289L16.4963 13.7497L16.5006 13.7451L16.3755 13.6289ZM19.4164 13.6222L19.2905 13.7383L19.3006 13.7476L19.4164 13.6222ZM19.4164 14.0267L19.3005 13.9012L19.2957 13.906L19.4164 14.0267ZM16.9015 14.1076V13.9369H16.7308V14.1076H16.9015ZM16.9015 15.5977H16.7308V15.7684H16.9015V15.5977ZM19.1804 15.6854L19.0546 15.8015L19.0646 15.8108L19.1804 15.6854ZM19.1804 16.0899L19.0645 15.9644L19.0597 15.9692L19.1804 16.0899ZM16.9015 16.1708V16.0001H16.7308V16.1708H16.9015ZM16.8071 18.1868L16.6908 18.0616L16.6864 18.0661L16.8071 18.1868ZM16.5913 18.1037C16.5495 18.1037 16.5215 18.0913 16.4962 18.0661L16.2549 18.3075C16.3465 18.3991 16.4623 18.4451 16.5913 18.4451V18.1037ZM16.4962 18.0661C16.471 18.0408 16.4586 18.0129 16.4586 17.971H16.1172C16.1172 18.1 16.1632 18.2159 16.2549 18.3075L16.4962 18.0661ZM16.4586 17.971V13.8447H16.1172V17.971H16.4586ZM16.4586 13.8447C16.4586 13.8029 16.471 13.7749 16.4962 13.7496L16.2549 13.5082C16.1632 13.5999 16.1172 13.7157 16.1172 13.8447H16.4586ZM16.5006 13.7451C16.527 13.7167 16.5537 13.7052 16.5913 13.7052V13.3638C16.4581 13.3638 16.341 13.4153 16.2505 13.5128L16.5006 13.7451ZM16.5913 13.7052H19.2141V13.3638H16.5913V13.7052ZM19.2141 13.7052C19.2483 13.7052 19.2699 13.7152 19.2909 13.738L19.5418 13.5064C19.4549 13.4123 19.3417 13.3638 19.2141 13.3638V13.7052ZM19.3006 13.7476C19.3233 13.7686 19.3333 13.7902 19.3333 13.8245H19.6747C19.6747 13.6969 19.6263 13.5837 19.5321 13.4968L19.3006 13.7476ZM19.3333 13.8245C19.3333 13.8587 19.3233 13.8803 19.3006 13.9013L19.5321 14.1522C19.6263 14.0653 19.6747 13.9521 19.6747 13.8245H19.3333ZM19.2957 13.906C19.2758 13.9259 19.2528 13.9369 19.2141 13.9369V14.2783C19.3372 14.2783 19.449 14.2355 19.5371 14.1474L19.2957 13.906ZM19.2141 13.9369H16.9015V14.2783H19.2141V13.9369ZM16.7308 14.1076V15.5977H17.0721V14.1076H16.7308ZM16.9015 15.7684H18.9781V15.427H16.9015V15.7684ZM18.9781 15.7684C19.0123 15.7684 19.034 15.7784 19.055 15.8011L19.3058 15.5696C19.2189 15.4755 19.1057 15.427 18.9781 15.427V15.7684ZM19.0646 15.8108C19.0873 15.8318 19.0973 15.8534 19.0973 15.8876H19.4387C19.4387 15.76 19.3903 15.6468 19.2962 15.5599L19.0646 15.8108ZM19.0973 15.8876C19.0973 15.9218 19.0873 15.9435 19.0646 15.9645L19.2962 16.2153C19.3903 16.1284 19.4387 16.0152 19.4387 15.8876H19.0973ZM19.0597 15.9692C19.0398 15.989 19.0168 16.0001 18.9781 16.0001V16.3415C19.1012 16.3415 19.213 16.2986 19.3011 16.2106L19.0597 15.9692ZM18.9781 16.0001H16.9015V16.3415H18.9781V16.0001ZM16.7308 16.1708V17.971H17.0721V16.1708H16.7308ZM16.7308 17.971C16.7308 18.0087 16.7193 18.0354 16.6909 18.0617L16.9232 18.3119C17.0207 18.2213 17.0721 18.1042 17.0721 17.971H16.7308ZM16.6864 18.0661C16.6611 18.0913 16.6331 18.1037 16.5913 18.1037V18.4451C16.7203 18.4451 16.8361 18.3991 16.9278 18.3075L16.6864 18.0661Z" fill="white" mask="url(#path-5-outside-1_511_9414)"/>
<mask id="mask1_511_9414" style="mask-type:alpha" maskUnits="userSpaceOnUse" x="0" y="0" width="24" height="26">
<path d="M21.801 26H2.34198C1.305 26 0.464355 25.1685 0.464355 24.1429V1.85714C0.464355 0.831472 1.305 0 2.34198 0H14.9733L23.6786 8.61039V24.1429C23.6786 25.1685 22.838 26 21.801 26Z" fill="url(#paint2_linear_511_9414)"/>
</mask>
<g mask="url(#mask1_511_9414)">
<ellipse opacity="0.05" cx="-0.77317" cy="-1.05569" rx="19.075" ry="18.1071" fill="url(#paint3_linear_511_9414)"/>
<ellipse opacity="0.07" cx="-0.773083" cy="-1.05504" rx="11.9912" ry="11.3539" fill="url(#paint4_linear_511_9414)"/>
</g>
<g filter="url(#filter1_d_511_9414)">
<path d="M23.6787 8.61039H16.851C15.814 8.61039 14.9734 7.76975 14.9734 6.73277V0L23.6787 8.61039Z" fill="url(#paint5_linear_511_9414)"/>
</g>
</g>
<defs>
<filter id="filter0_f_511_9414" x="-1.58389" y="9.24863" width="27.4816" height="13.7479" filterUnits="userSpaceOnUse" color-interpolation-filters="sRGB">
<feFlood flood-opacity="0" result="BackgroundImageFix"/>
<feBlend mode="normal" in="SourceGraphic" in2="BackgroundImageFix" result="shape"/>
<feGaussianBlur stdDeviation="1.66426" result="effect1_foregroundBlur_511_9414"/>
</filter>
<filter id="filter1_d_511_9414" x="13.0104" y="-2.04832" width="12.9727" height="12.8777" filterUnits="userSpaceOnUse" color-interpolation-filters="sRGB">
<feFlood flood-opacity="0" result="BackgroundImageFix"/>
<feColorMatrix in="SourceAlpha" type="matrix" values="0 0 0 0 0 0 0 0 0 0 0 0 0 0 0 0 0 0 127 0" result="hardAlpha"/>
<feOffset dx="0.170693" dy="0.0853466"/>
<feGaussianBlur stdDeviation="1.06683"/>
<feColorMatrix type="matrix" values="0 0 0 0 0 0 0 0 0 0 0 0 0 0 0 0 0 0 0.33 0"/>
<feBlend mode="normal" in2="BackgroundImageFix" result="effect1_dropShadow_511_9414"/>
<feBlend mode="normal" in="SourceGraphic" in2="effect1_dropShadow_511_9414" result="shape"/>
</filter>
<linearGradient id="paint0_linear_511_9414" x1="12.0715" y1="0" x2="12.0715" y2="26" gradientUnits="userSpaceOnUse">
<stop stop-color="#FF7979"/>
<stop offset="1" stop-color="#E85555"/>
</linearGradient>
<linearGradient id="paint1_linear_511_9414" x1="12.0715" y1="0" x2="12.0715" y2="26" gradientUnits="userSpaceOnUse">
<stop stop-color="#FF8777"/>
<stop offset="1" stop-color="#F0695F"/>
</linearGradient>
<linearGradient id="paint2_linear_511_9414" x1="12.0715" y1="0" x2="12.0715" y2="26" gradientUnits="userSpaceOnUse">
<stop stop-color="#FF8777"/>
<stop offset="1" stop-color="#F0695F"/>
</linearGradient>
<linearGradient id="paint3_linear_511_9414" x1="0.611811" y1="-0.433456" x2="6.28632" y2="14.7929" gradientUnits="userSpaceOnUse">
<stop stop-color="white" stop-opacity="0"/>
<stop offset="1" stop-color="white"/>
</linearGradient>
<linearGradient id="paint4_linear_511_9414" x1="0.0975651" y1="-0.664871" x2="3.64887" y2="8.88854" gradientUnits="userSpaceOnUse">
<stop stop-color="white" stop-opacity="0"/>
<stop offset="1" stop-color="white"/>
</linearGradient>
<linearGradient id="paint5_linear_511_9414" x1="19.3261" y1="0" x2="19.3261" y2="8.61039" gradientUnits="userSpaceOnUse">
<stop stop-color="#DA5D4C"/>
<stop offset="1" stop-color="#E32900"/>
</linearGradient>
</defs>
</svg>
