<svg width="13" height="18" viewBox="0 0 13 18" fill="none" xmlns="http://www.w3.org/2000/svg">
<path fill-rule="evenodd" clip-rule="evenodd" d="M7.37168 0.00180814C7.24502 0.0162471 7.12026 0.069003 7.02399 0.148838C6.92805 0.228398 6.87254 0.314197 6.84469 0.426006C6.82989 0.485415 6.82971 4.86893 6.84451 4.93497C6.86792 5.03948 6.92435 5.1278 7.01894 5.20795C7.14043 5.31091 7.26381 5.3564 7.44179 5.36385L7.52557 5.36736V10.7608C7.52557 15.5635 7.52672 16.1637 7.53605 16.2395C7.56565 16.4802 7.64359 16.7033 7.77529 16.9243C8.09074 17.4537 8.67834 17.8387 9.35488 17.9591C9.55562 17.9949 9.82119 18.0089 10.0231 17.9943C10.8417 17.9354 11.5579 17.5137 11.9143 16.8808C12.022 16.6896 12.0914 16.4864 12.1266 16.2591C12.1382 16.184 12.1389 15.9275 12.1406 10.7738L12.1424 5.36737L12.2227 5.36387C12.3246 5.35943 12.4029 5.34312 12.4809 5.31009C12.5947 5.26193 12.6931 5.18242 12.7537 5.0897C12.7864 5.03976 12.8172 4.95804 12.8259 4.89853C12.836 4.82905 12.836 0.534088 12.8259 0.464901C12.8057 0.326971 12.7148 0.190776 12.5883 0.108769C12.5308 0.0714739 12.4359 0.0312704 12.3646 0.0139693L12.3099 0.000692609L9.85105 7.94176e-05C8.49868 -0.000259361 7.38297 0.00051728 7.37168 0.00180814ZM7.54609 2.68172V4.75235H8.07273H8.59937L8.60109 3.03364L8.60281 1.31492L8.96019 1.31341L9.31756 1.31189V3.03212V4.75235H9.83052H10.3435L10.3452 3.03364L10.3469 1.31492H10.7026H11.0582L11.06 3.03364L11.0617 4.75235H11.5883H12.115V2.68172V0.611078H9.83053H7.54609V2.68172ZM8.23689 6.10747V6.84927H9.83053H11.4242V6.10747V5.36566H9.83053H8.23689V6.10747ZM8.23689 8.95496V10.4532H8.74303H9.24916V9.49233V8.53148H10.3367H11.4242V7.99411V7.45674H9.83053H8.23689V8.95496ZM9.96732 11.379V13.6132H10.6957H11.4242V11.379V9.14479H10.6957H9.96732V11.379Z" fill="#C47FFF"/>
<path fill-rule="evenodd" clip-rule="evenodd" d="M0.987256 0.841239C0.987256 0.973907 0.986989 0.9774 0.976783 0.9774C0.966314 0.9774 0.966309 0.980894 0.966309 8.96426C0.966309 16.9244 0.966345 16.9511 0.976694 16.9538C0.986665 16.9564 0.987136 16.9619 0.988477 17.0908L0.989875 17.2251L2.11451 17.2264L3.23915 17.2277V16.9528V16.6778H2.37767H1.51619V15.2481V13.8184H2.37767H3.23915V13.5435V13.2686H2.37767H1.51619V11.9436V10.6187H2.37767H3.23915V10.3437V10.0688H2.37767H1.51619V8.9533V7.83782H2.37767H3.23915V7.5655V7.29318H2.37767H1.51619V4.27407V1.25496H2.37767H3.23915V0.980019V0.705078H2.1132H0.987256V0.841239Z" fill="#C47FFF"/>
</svg>
